<?xml version="1.0" encoding="utf-8"?>
<!-- Generator: Adobe Illustrator 21.0.0, SVG Export Plug-In . SVG Version: 6.00 Build 0)  -->
<svg version="1.1" id="圖層_1" xmlns="http://www.w3.org/2000/svg" xmlns:xlink="http://www.w3.org/1999/xlink" x="0px" y="0px"
	 viewBox="0 0 265 125" style="enable-background:new 0 0 265 125;" xml:space="preserve">
<style type="text/css">
	.st0{fill:url(#SVGID_1_);}
	.st1{fill:#FAA81E;}
	.st2{fill:url(#SVGID_2_);}
	.st3{fill:url(#SVGID_3_);}
	.st4{fill:url(#SVGID_4_);}
	.st5{fill:url(#SVGID_5_);}
	.st6{fill:url(#SVGID_6_);}
	.st7{fill:url(#SVGID_7_);}
	.st8{fill:#D71F45;}
	.st9{fill:#EE4632;}
</style>
<title>工作區域 1</title>
<linearGradient id="SVGID_1_" gradientUnits="userSpaceOnUse" x1="60.2447" y1="8.4108" x2="139.8647" y2="55.8708" gradientTransform="matrix(1 0 0 -1 0 131)">
	<stop  offset="0" style="stop-color:#EC1C24"/>
	<stop  offset="0.99" style="stop-color:#F4821F"/>
</linearGradient>
<path class="st0" d="M87.6,113.9c4.8-2.2,9.2-5.1,13.2-8.5c0.1-0.1,0.2-0.3,0.1-0.4c-0.5-1-1-1.9-1.6-2.8l-5.4-7.3
	c-0.1-0.2-0.3-0.2-0.5-0.1c-0.1,0.1-0.2,0.2-0.2,0.3c0,0.1,0,0.2,0,0.2c0.1,6.7-2.1,13.1-6.2,18.4c-0.1,0.1-0.1,0.2,0,0.3
	c0,0,0.1,0.1,0.1,0.1C87.3,114.1,87.5,114,87.6,113.9z"/>
<path class="st1" d="M84,81.6l-1.5-2.1l-1.5,2l-0.1,0.1c-6.2,9-5.6,21,1.6,29.3c7.1-8.2,7.8-20.2,1.7-29.2L84,81.6z"/>
<linearGradient id="SVGID_2_" gradientUnits="userSpaceOnUse" x1="36.5697" y1="43.0161" x2="120.9197" y2="93.2961" gradientTransform="matrix(1 0 0 -1 0 131)">
	<stop  offset="0" style="stop-color:#EC1C24"/>
	<stop  offset="0.99" style="stop-color:#F4821F"/>
</linearGradient>
<path class="st2" d="M89.7,59c0-4-3.2-7.4-7.2-7.6h-0.1c-4.2,0.2-7.4,3.8-7.2,8c0.1,1.4,0.5,2.7,1.3,3.9l5.5,7.4
	c0.2,0.2,0.5,0.3,0.7,0.1c0,0,0.1-0.1,0.1-0.1l5.5-7.3C89.2,62,89.7,60.5,89.7,59z"/>
<linearGradient id="SVGID_3_" gradientUnits="userSpaceOnUse" x1="20.0235" y1="70.7761" x2="104.3735" y2="121.0561" gradientTransform="matrix(1 0 0 -1 0 131)">
	<stop  offset="0" style="stop-color:#EC1C24"/>
	<stop  offset="0.99" style="stop-color:#F4821F"/>
</linearGradient>
<path class="st3" d="M71.5,36.8c2.8-4.2,1.8-9.8-2.4-12.6c-1.4-0.9-3-1.5-4.6-1.6h-0.1c-5,0.3-8.9,4.6-8.6,9.6
	c0.1,1.6,0.6,3.2,1.6,4.6v0.1l6.5,8.8c0.2,0.3,0.6,0.3,0.8,0.2c0.1,0,0.1-0.1,0.2-0.2L71.5,36.8L71.5,36.8z"/>
<path class="st1" d="M44.8,81.7c-7.5,10.8-4.8,25.7,6,33.3c1.7,1.2,3.6,2.2,5.6,2.9c0.4,0.1,0.8,0,1-0.4c0-0.1,0.1-0.3,0-0.4
	c-0.7-4.9,0.1-9.9,2.3-14.4v-0.1l2-3.4v-0.1l17.7-23.7L65,56.1c-0.2-0.3-0.7-0.4-1-0.2c-0.1,0-0.1,0.1-0.2,0.2L44.8,81.7z"/>
<linearGradient id="SVGID_4_" gradientUnits="userSpaceOnUse" x1="26.7822" y1="59.3319" x2="110.9622" y2="109.5119" gradientTransform="matrix(1 0 0 -1 0 131)">
	<stop  offset="0" style="stop-color:#EC1C24"/>
	<stop  offset="0.99" style="stop-color:#F4821F"/>
</linearGradient>
<path class="st4" d="M35.6,95.3c0-4.4,1-8.6,2.9-12.6c0.7-1.4,1.5-2.7,2.3-4L61.5,51c0.1-0.1,0.1-0.3,0-0.4l-7.3-9.8l-0.7-1
	c-4.5-6.3-3-15,3.3-19.5c2.2-1.6,4.9-2.5,7.7-2.6h0.1C72.2,18,78.3,24.4,78,32.1c-0.1,2.7-1,5.4-2.6,7.7l-0.7,1l-7.3,9.8
	c-0.1,0.1-0.1,0.3,0,0.4l3,4.1c0.1,0.1,0.3,0.2,0.4,0.1c0,0,0.1-0.1,0.1-0.1c1.6-4.9,6-8.2,11.1-8.5h0.7c5.1,0.3,9.6,3.7,11.2,8.6
	c0.1,0.2,0.2,0.3,0.4,0.2c0.1,0,0.1-0.1,0.1-0.1l3.1-4.1c0.1-0.1,0.1-0.3,0-0.4l-8.1-10.9c-4.5-6.3-2.9-15.1,3.4-19.5
	c1.5-1.1,3.3-1.8,5.1-2.2c0.2,0,0.3-0.2,0.2-0.4c0-0.1-0.1-0.1-0.1-0.2C85,7.5,68.3,3.7,52.2,7c-22.1,4.4-39.5,21.6-44,43.7
	c-5.7,27.1,8.9,54.3,34.6,64.6c0.2,0.1,0.3,0,0.4-0.2c0-0.1,0-0.2-0.1-0.3C38.3,109.5,35.6,102.5,35.6,95.3z"/>
<path class="st1" d="M78.6,114.6c0.2-0.1,0.2-0.4,0.1-0.5c0,0,0,0,0,0c-4.5-5.2-6.9-11.9-6.9-18.7c0-0.1,0-0.2,0-0.3
	c0-0.2-0.2-0.4-0.4-0.4c-0.1,0-0.2,0.1-0.3,0.2l-5.3,7.1c-3.5,4.9-4.6,11.1-3,16.9c0,0.2,0.2,0.3,0.3,0.3c0.4,0,0.8,0,1.3,0h0.5
	C69.8,119.1,74.6,117.5,78.6,114.6z"/>
<linearGradient id="SVGID_5_" gradientUnits="userSpaceOnUse" x1="29.4672" y1="54.9334" x2="113.8172" y2="105.2134" gradientTransform="matrix(1 0 0 -1 0 131)">
	<stop  offset="0" style="stop-color:#EC1C24"/>
	<stop  offset="0.99" style="stop-color:#F4821F"/>
</linearGradient>
<path class="st5" d="M91.8,31.7c0,1.8,0.5,3.6,1.6,5.1l6.6,8.9c0.2,0.3,0.6,0.3,0.8,0.2c0.1,0,0.1-0.1,0.2-0.2l6.6-8.9
	c2-3,2.1-6.8,0.2-9.9l0-0.1c-0.5-0.7-1.1-1.3-1.7-2l-0.1-0.1c-1.5-1.3-3.4-2.1-5.5-2.2h-0.1C95.6,22.9,91.8,26.9,91.8,31.7z"/>
<linearGradient id="SVGID_6_" gradientUnits="userSpaceOnUse" x1="42.8901" y1="33.1121" x2="126.8801" y2="83.1721" gradientTransform="matrix(1 0 0 -1 0 131)">
	<stop  offset="0" style="stop-color:#EC1C24"/>
	<stop  offset="0.99" style="stop-color:#F4821F"/>
</linearGradient>
<path class="st6" d="M111.5,39.8l-0.8,1l-7.3,9.8c-0.1,0.1-0.1,0.3,0,0.5l15.5,20.8c0.1,0.2,0.4,0.2,0.6,0.1
	c0.1-0.1,0.1-0.2,0.2-0.3c2-12.1,0-24.5-5.7-35.3c-0.1-0.2-0.3-0.3-0.5-0.2c-0.1,0-0.2,0.1-0.2,0.2
	C112.9,37.6,112.3,38.7,111.5,39.8z"/>
<linearGradient id="SVGID_7_" gradientUnits="userSpaceOnUse" x1="49.877" y1="21.0339" x2="133.977" y2="71.1639" gradientTransform="matrix(1 0 0 -1 0 131)">
	<stop  offset="0" style="stop-color:#EC1C24"/>
	<stop  offset="0.99" style="stop-color:#F4821F"/>
</linearGradient>
<path class="st7" d="M101.2,56.3c-0.3-0.4-0.9-0.5-1.3-0.2c-0.1,0.1-0.1,0.1-0.2,0.2L85.6,75.4l16.8,22.7c0,0,1.4,2,1.7,2.5
	c0.3,0.4,0.8,0.6,1.2,0.3c0.1,0,0.1-0.1,0.2-0.2c5.6-6.2,9.8-13.5,12.3-21.5c0.1-0.3,0-0.6-0.2-0.9L101.2,56.3z"/>
<path class="st8" d="M154.3,63.9c-1.7,0.1-3.5-0.3-5.1-1c-1.2-0.6-2.3-1.5-3.2-2.5c-0.3-0.3-0.4-0.6-0.5-1c0-0.4,0.1-0.8,0.5-1.1
	l1-1c0.3-0.3,0.6-0.4,1-0.5h0.1c0.4,0,0.7,0.2,1,0.5L150,58c0.3,0.3,0.7,0.5,1.1,0.7c0.4,0.2,0.9,0.4,1.4,0.5
	c0.6,0.1,1.2,0.2,1.8,0.2c1.3,0.1,2.6-0.4,3.6-1.2c0.9-0.7,1.4-1.8,1.4-3c0.1-1.2-0.4-2.4-1.3-3.3c-1.2-1.1-2.6-2-4.1-2.6
	c-1.1-0.5-2.2-1.1-3.2-1.8c-0.9-0.6-1.8-1.3-2.5-2.1c-0.7-0.8-1.2-1.7-1.6-2.7c-0.4-1.1-0.6-2.3-0.5-3.5c0-1.1,0.2-2.2,0.6-3.1
	c0.4-1,1-1.9,1.8-2.7c0.8-0.8,1.8-1.4,2.9-1.9c2.7-1.1,5.8-0.9,8.4,0.3c1.1,0.6,2.1,1.3,3.1,2.2c0.6,0.4,0.7,1.3,0.3,1.9
	c-0.1,0.1-0.2,0.2-0.3,0.3l-1.1,1.1c-0.3,0.3-0.6,0.5-1,0.5c-0.4,0-0.8-0.2-1.1-0.5c-0.6-0.5-1.2-0.9-1.9-1.3
	c-0.8-0.5-1.8-0.7-2.7-0.7c-0.6,0-1.3,0.1-1.9,0.3c-0.5,0.2-1,0.5-1.5,0.9c-0.4,0.3-0.8,0.8-1,1.3c-0.2,0.5-0.3,1-0.3,1.5
	c0,0.6,0.1,1.2,0.3,1.8c0.2,0.5,0.5,1,0.9,1.4c0.5,0.5,1,0.9,1.6,1.3c0.8,0.5,1.6,0.9,2.5,1.2c1.2,0.5,2.3,1.1,3.5,1.8
	c1,0.6,1.8,1.3,2.6,2.1c0.7,0.8,1.2,1.7,1.6,2.7c0.4,1.1,0.6,2.3,0.5,3.5c0,1.2-0.3,2.4-0.8,3.4c-0.5,1.1-1.2,2-2.1,2.8
	c-0.9,0.8-2,1.5-3.1,2c-1.2,0.5-2.5,0.7-3.8,0.7"/>
<path class="st8" d="M168.3,63.4c-0.8,0.1-1.5-0.5-1.5-1.3c0-0.1,0-0.2,0-0.2V32.3c-0.1-0.8,0.5-1.5,1.3-1.5c0.1,0,0.2,0,0.2,0h1.4
	c0.8-0.1,1.5,0.5,1.5,1.3c0,0.1,0,0.2,0,0.3v14.3v15.3c0,0.4-0.2,0.8-0.5,1.1c-0.3,0.3-0.7,0.4-1.1,0.4L168.3,63.4z"/>
<path class="st8" d="M181.7,63.4c-0.8,0.1-1.5-0.5-1.5-1.3c0-0.1,0-0.2,0-0.2v-12c0.1-1-0.3-2-1-2.7c-0.7-0.7-1.7-1.1-2.7-1h-3.3V42
	h3.5c1.1,0,2.2,0.2,3.2,0.6c0.9,0.4,1.8,0.9,2.5,1.6c0.7,0.7,1.3,1.6,1.6,2.5c0.4,1,0.6,2.1,0.6,3.2v12c0.1,0.8-0.5,1.5-1.3,1.5
	c-0.1,0-0.2,0-0.2,0L181.7,63.4z"/>
<path class="st8" d="M189,39.8c-0.8,0.1-1.5-0.5-1.5-1.3c0-0.1,0-0.2,0-0.2v-2.4c0-0.8,0.6-1.4,1.4-1.5c0.1,0,0.1,0,0.2,0h1.4
	c0.8-0.1,1.5,0.5,1.5,1.3c0,0.1,0,0.2,0,0.3v2.4c0.1,0.8-0.5,1.5-1.3,1.5c-0.1,0-0.2,0-0.2,0L189,39.8z M189,63.5
	c-0.8,0.1-1.5-0.5-1.5-1.3c0-0.1,0-0.2,0-0.2V43.6c-0.1-0.8,0.5-1.5,1.3-1.5c0.1,0,0.2,0,0.2,0h1.4c0.8-0.1,1.5,0.5,1.5,1.3
	c0,0.1,0,0.2,0,0.2v18.4c0.1,0.8-0.5,1.5-1.3,1.5c-0.1,0-0.2,0-0.2,0L189,63.5z"/>
<path class="st8" d="M209.5,63.4c-0.8,0.1-1.5-0.5-1.5-1.3c0-0.1,0-0.2,0-0.3V50.2c0-1.1-0.4-2.2-1.1-3.1c-1.8-1.7-4.7-1.7-6.5,0
	c-0.7,0.9-1.1,1.9-1.1,3.1v11.8c0.1,0.8-0.5,1.5-1.3,1.5c-0.1,0-0.1,0-0.2,0h-1.4c-0.8,0.1-1.5-0.5-1.5-1.3c0-0.1,0-0.2,0-0.2V50.2
	c0-1.1,0.2-2.2,0.6-3.3c0.8-2.1,2.5-3.7,4.6-4.6c2.3-0.9,4.9-0.9,7.2,0c3.2,1.3,5.2,4.5,5.2,7.9v11.8c0.1,0.8-0.5,1.5-1.3,1.5
	c-0.1,0-0.2,0-0.2,0L209.5,63.4z"/>
<path class="st8" d="M246.9,45.8c-0.9,0-1.8,0.2-2.7,0.5c-0.8,0.4-1.5,0.9-2.1,1.5c-0.6,0.6-1.1,1.4-1.4,2.2c-0.7,1.7-0.7,3.7,0,5.4
	c0.3,0.8,0.8,1.6,1.4,2.2c0.6,0.6,1.3,1.1,2.1,1.5c1.7,0.7,3.6,0.7,5.3,0c0.8-0.4,1.5-0.9,2.1-1.5c0.6-0.6,1.1-1.4,1.4-2.2
	c0.7-1.7,0.7-3.7,0-5.4c-0.3-0.8-0.8-1.6-1.4-2.2c-0.6-0.6-1.3-1.1-2.1-1.5C248.7,46,247.8,45.8,246.9,45.8 M246.9,63.9
	c-1.5,0-3-0.3-4.3-0.9c-2.7-1.1-4.8-3.3-5.9-5.9c-1.2-2.8-1.2-5.9,0-8.7c1.1-2.7,3.3-4.8,5.9-5.9c2.8-1.2,5.9-1.2,8.7,0
	c2.7,1.1,4.8,3.3,5.9,5.9c1.2,2.8,1.2,5.9,0,8.7c-1.1,2.7-3.3,4.8-5.9,5.9C249.9,63.6,248.4,63.9,246.9,63.9"/>
<path class="st8" d="M216.6,63.4c-0.8,0.1-1.5-0.5-1.5-1.3c0-0.1,0-0.2,0-0.2V32.3c-0.1-0.8,0.5-1.5,1.3-1.5c0.1,0,0.2,0,0.2,0h1.4
	c0.8-0.1,1.5,0.5,1.5,1.3c0,0.1,0,0.2,0,0.3v29.6c0.1,0.8-0.5,1.5-1.3,1.5c-0.1,0-0.2,0-0.3,0L216.6,63.4z"/>
<path class="st8" d="M230.2,63.4c-0.8,0.1-1.5-0.5-1.5-1.3c0-0.1,0-0.2,0-0.2v-12c0.1-1-0.3-2-1-2.7c-0.7-0.7-1.7-1.1-2.7-1h-3.3V42
	h3.5c1.1,0,2.2,0.2,3.2,0.6c0.9,0.4,1.8,0.9,2.5,1.6c0.7,0.7,1.3,1.6,1.6,2.5c0.4,1,0.6,2.1,0.6,3.2v12c0.1,0.8-0.5,1.5-1.3,1.5
	c-0.1,0-0.2,0-0.3,0L230.2,63.4z"/>
<path class="st9" d="M187.7,96.1c-0.1-0.2-0.2-0.3-0.8-0.5c-0.4-0.1-0.7-0.3-1.1-0.5c-3.8-2.1-4.8-4.5-6.1-7.9
	c0-0.1-0.1-0.1-0.1-0.1c-0.1,0-0.1,0.1-0.1,0.1c-0.5,1.8-1.1,3.5-2,5.1c0,0,0,0.1,0,0.1c1.4,2.8,3.7,5.1,6.6,6.5l0,0
	c0.5,0.2,1,0.4,1.5,0.5c0.4,0.1,0.8,0.1,1.1-0.1c0.3-0.2,0.6-0.6,0.7-0.9l0.3-1.3C187.9,96.4,187.8,96.3,187.7,96.1"/>
<path class="st9" d="M165,81.9c0.3-0.3,0.4-0.7,0.4-1.1v-1.4c0.1-0.7-0.5-1.4-1.2-1.5c-0.1,0-0.2,0-0.3,0h-12.5v-2
	c-0.1-1.4,0.9-2.6,2.3-2.6c0.1,0,0.3,0,0.4,0h7c1.2,0,2.3-0.5,3.1-1.3c0.7-0.7,1.3-3,0.1-3h-10.2c-3.8-0.2-6.9,2.8-7.1,6.5
	c0,0.1,0,0.2,0,0.4v22.4c-0.1,0.7,0.5,1.4,1.2,1.5c0.1,0,0.2,0,0.2,0h1.4c0.8,0.1,1.4-0.5,1.5-1.3c0-0.1,0-0.1,0-0.2v-16h5.8v16
	c-0.1,0.8,0.5,1.4,1.3,1.5c0.1,0,0.1,0,0.2,0h1.4c0.7,0.1,1.4-0.5,1.5-1.2c0-0.1,0-0.2,0-0.3v-16h2.5
	C164.3,82.3,164.7,82.2,165,81.9"/>
<path class="st9" d="M178.9,81.2c0-1.1,0-1.9,0-1.9v-5.2h3.7v7l0,0v0.3c-0.1,0.7,0.5,1.4,1.2,1.5c0.1,0,0.2,0,0.2,0h1.4
	c0.8,0.1,1.4-0.5,1.5-1.3c0-0.1,0-0.1,0-0.2v-7.1c0-2.2-1.8-3.9-4-3.9h-11v-2c0-0.3-0.2-0.6-0.4-0.8c-0.3-0.3-0.7-0.4-1.1-0.4H169
	c-0.4,0-0.8,0.1-1.1,0.4c-0.2,0.2-0.4,0.5-0.4,0.8v15.1c-0.1,0.8,0.5,1.4,1.3,1.5c0.1,0,0.1,0,0.2,0h1.4c0.8,0.1,1.4-0.5,1.5-1.3
	c0-0.1,0-0.1,0-0.2v-0.1l0,0v-9.2h3.5v5.2c0,0.1,0,11.1-6.6,14.9c-0.2,0.1-0.4,0.2-0.7,0.4c-0.2,0.1-0.5,0.2-0.8,0.3l-0.5,0.2
	c-0.4,0.1-0.7,0.3-0.9,0.6c-0.2,0.4-0.2,0.8-0.2,1.2l0.2,1.3c0.1,0.4,0.3,0.7,0.7,0.9c0.4,0.2,0.8,0.2,1.2,0.1
	c4.6-1.6,7.8-5.2,9.7-10.6C178.2,86.2,178.7,83.7,178.9,81.2"/>
<path class="st9" d="M213,78.9c-0.3-0.3-0.7-0.4-1.1-0.4h-7.5v-5.2h4.8c1.2,0.1,2.3-0.4,3.1-1.1c0.7-0.7,1.3-3.1,0.1-3.1h-18.8
	c-0.7-0.1-1.4,0.5-1.5,1.2c0,0.1,0,0.2,0,0.3v1.4c-0.1,0.8,0.5,1.4,1.3,1.5c0.1,0,0.1,0,0.2,0h6.5v5.1h-6.7
	c-0.7-0.1-1.4,0.5-1.5,1.2c0,0.1,0,0.2,0,0.2v1.4c-0.1,0.8,0.5,1.4,1.3,1.5c0.1,0,0.1,0,0.2,0h6.7v0.9c0,2-6.1,8.1-8.7,8.6l-0.3,0.1
	c-0.3,0.1-0.7,0.3-0.9,0.5c-0.2,0.3-0.3,0.7-0.2,1.1l0.2,1.3c0,0.4,0.3,0.8,0.6,1c0.1,0.1,0.2,0.1,0.4,0.1c0.2,0,0.5,0,0.8,0
	c4-0.7,8.1-5.3,8.1-5.3v7.2c0,0.4,0.1,0.8,0.4,1.1c0.3,0.3,0.7,0.4,1.1,0.4h1.4c0.8,0.1,1.4-0.5,1.5-1.3c0-0.1,0-0.1,0-0.2V82.8h7.5
	c0.7,0.1,1.4-0.5,1.5-1.2c0-0.1,0-0.2,0-0.2v-1.4C213.5,79.5,213.3,79.2,213,78.9"/>
<path class="st9" d="M229.2,92.1c0,0.8-0.3,1.6-0.9,2.2c-0.6,0.6-1.4,0.9-2.2,0.9h-3.2c-1.6,0.1-3-1.1-3.1-2.7c0-0.1,0-0.2,0-0.4
	V77.2c0-0.8,0.3-1.6,0.9-2.2c0.6-0.6,1.4-0.9,2.2-0.9h3.2c1.6-0.1,3,1.1,3.1,2.7c0,0.1,0,0.2,0,0.4V92.1z M232.7,74.1
	c-0.7-1.7-2.1-3.1-3.8-3.8c-0.9-0.4-1.9-0.6-2.9-0.5h-3.2c-1,0-1.9,0.2-2.9,0.5c-0.9,0.3-1.6,0.8-2.3,1.5c-0.7,0.7-1.2,1.5-1.5,2.4
	c-0.3,1-0.5,2-0.5,3v15.1c0,1,0.2,2,0.5,2.9c0.7,1.7,2.1,3.1,3.8,3.8c0.9,0.4,1.9,0.6,2.9,0.5h3.2c1,0,1.9-0.2,2.9-0.5
	c0.9-0.3,1.7-0.9,2.3-1.5c0.7-0.7,1.2-1.5,1.5-2.4c0.4-1,0.6-2,0.5-3V77.1C233.3,76.1,233.1,75.1,232.7,74.1"/>
<path class="st9" d="M212.6,92.5L212.6,92.5c-2.5-1.8-4.6-4.1-6.1-6.9c0-0.1-0.1-0.1-0.2-0.1c-0.1,0-0.1,0.1-0.1,0.2v6.7
	c0,0,0,0.1,0,0.1c1.3,1.3,2.7,2.5,4.3,3.6l0.3,0.2l0,0c0.2,0.1,0.3,0.1,0.5,0.1c0.1,0,0.2,0,0.3,0c0.4-0.1,0.7-0.4,0.9-0.7l0.6-1
	c0.4-0.7,0.2-1.5-0.4-1.9c0,0-0.1,0-0.1-0.1"/>
</svg>
