<svg xmlns="http://www.w3.org/2000/svg" viewBox="0 0 156.94 184.55"><defs></defs><path fill="#ef4632" d="M430,208.5a.5.5,0,0,1-.25-.93l77.94-45a.5.5,0,1,1,.5.87l-77.94,45A.5.5,0,0,1,430,208.5Z" transform="translate(-429.53 -162.5)"/><path fill="#ef4632" d="M586,208.5a.5.5,0,0,1-.25-.07l-77.94-45a.5.5,0,0,1,.5-.87l77.94,45a.5.5,0,0,1-.25.93Z" transform="translate(-429.53 -162.5)"/><path d="M540.18,218.86a3.83,3.83,0,0,1,2,.73,15.62,15.62,0,0,0,2.84-2.35l1.74,2.31a14.46,14.46,0,0,1-4.55.66l0,4.29v.22h4.71l-.2.37H545.2v10.45a2.55,2.55,0,0,1-1.94.59v-11h-1.12c0,4.44-.64,8.08-3.26,11.75,1.3-3.87,1.3-9.66,1.3-11.75Zm14.43,3.3c0,.42-.31.55-.75.55l-2.64,3.34.77-4.2h-2.9c-.15.46-.31.9-.48,1.34l2.29.46c-.13.46-.26.66-.62.79v0c.66,3.81,2,7.61,4.44,9.62a22.45,22.45,0,0,0-2.18,2.64c-1.72-2.84-2.13-7.42-2.31-11-.29,7-2.44,9.13-5.39,11,3-4.07,3.61-7.79,3.52-13a17.83,17.83,0,0,1-2.29,4.09,47.54,47.54,0,0,0,1.83-10.74l2.75.9c-.11.35-.2.68-.64.75q-.36,1.32-.79,2.64h2.84l.29-1.56Z" transform="translate(-429.53 -162.5)"/><path d="M539.06,245.78H542v-3.87c-1.19.13-2.24.2-3,.24,1-.55,4-1.78,5.77-3.3l1.8,2.18a20.55,20.55,0,0,1-2.62.62v4.14h2.77l-.2.4h-2.57v1.76c1.06.51,2.46,1.28,2.51,2.75a2.28,2.28,0,0,1-1.34,2.07,38.89,38.89,0,0,0-1.17-4.38v9.95a2.69,2.69,0,0,1-2,.57v-8.38a20.9,20.9,0,0,1-3.26,4.64,49.16,49.16,0,0,0,2.93-9h-2.42Zm14.87,11.68a2.28,2.28,0,0,1-2-.59v-1.14h-3.15v1.36a2.86,2.86,0,0,1-1.94.64V241.36a4.82,4.82,0,0,1,1.94.68H552l2-.68Zm-5.13-2.11H552V242.42h-3.15Z" transform="translate(-429.53 -162.5)"/><path d="M546.31,274.37a3.31,3.31,0,0,0,1.5-2.4,1.63,1.63,0,0,1-2.09-1.61,1.71,1.71,0,0,1,1.65-1.72,1.88,1.88,0,0,1,1.87,2,4.27,4.27,0,0,1-2.84,3.92Z" transform="translate(-429.53 -162.5)"/><path d="M500.63,226.76h14.79l-.2.46H500.76Z" transform="translate(-429.53 -162.5)"/><path d="M500.1,246.84l2.11-.51v-7l2.68.48c0,.51-.24.81-.68.81v5.17l3.59-.88-.15.42-3.43.84v5.74l3.56-1.72-4.29,5.35c0,.66-.22,1.06-.53,1.06l-1.47-3.37.73-.35v-6.21l-1.91.46Zm6.16-5.39h6.4l2.2-.75c-.07,4.07-.18,12.43-.37,14.74s-1.45,3-3.52,3.34c-.13-1.47-.57-2.18-2.55-2.82l2.51.13c.64.07,1.25-.18,1.39-1.32.18-1.56.33-9.53.35-13h-1.87c.35,12.59-3.28,14.35-7.19,17.34,3.48-5.06,5.37-7.77,5.08-17.34h-2.24Z" transform="translate(-429.53 -162.5)"/><path d="M508.22,275.29a.71.71,0,0,1-.95.55,14.62,14.62,0,0,1-6.38,5.44,27.63,27.63,0,0,0,4.44-8.14Zm5.39-1.39a2.57,2.57,0,0,1-2.16-.51V272h-6.8v1.36a3.3,3.3,0,0,1-2.2.62V262.2a5.07,5.07,0,0,1,2.2.84h6.8l2.16-.73Zm-9-2.24h6.8v-8.25h-6.8Zm4.36,1.65c3.87,1.34,5.44,3.52,5.7,4.6a2.38,2.38,0,0,1-1.58,3.15A49.22,49.22,0,0,0,509,273.31Z" transform="translate(-429.53 -162.5)"/><path d="M500.58,288.57h5.54a48.58,48.58,0,0,0,.11-5.48l3,.53a.79.79,0,0,1-.66.86q0,2.24-.13,4.09h4.31l2.22-.68-.48,11.57c-.13,2.73-1.76,3.28-3.87,3.56.29-1.28-.73-2.27-2.79-3.06l3.48.2c.73.07.92-.53,1-1.23l.44-10h-4.31c-.07.88-.15,1.72-.26,2.49,1.69.88,2.88,1.67,3.19,2.79.48,1.8-.84,2.77-2,2.49-.48-2.16-.95-3.7-1.25-4.8-.81,5.3-2.86,8.14-7.66,11.27a24.58,24.58,0,0,0,5.65-14.24h-5.37Zm1.06-4.86a4.05,4.05,0,0,1,3.37,1.76,1.69,1.69,0,0,1-1.56,2.55A21.56,21.56,0,0,0,501.64,283.71Z" transform="translate(-429.53 -162.5)"/><path d="M502.87,310.79h10.36l-.2.37h-4.4a9.88,9.88,0,0,1-1.85,1.72,8,8,0,0,1,2.42,3.52,28.2,28.2,0,0,0,3.19-4.55l2.09,2.44a.78.78,0,0,1-1.06.31,11.18,11.18,0,0,1-2.66,1.54,9.58,9.58,0,0,0,4.77,5.15,9.15,9.15,0,0,0-2.31,2.64,13.11,13.11,0,0,1-2.68-7.68c-.44.18-.86.33-1.28.46,0,0,0,.09,0,.11.88,3.63.29,8.1-3.19,8.07a2.28,2.28,0,0,0-2.07-2.44l1.76-.18c1-.09,1.54-.64,1.72-2,0-.4.07-.81.09-1.25a24,24,0,0,1-7.46,4.18,40.79,40.79,0,0,0,7.26-7c0-.29-.11-.55-.15-.81a20.56,20.56,0,0,1-7,4c1.8-1.45,5.06-4.31,6.29-6.2a.65.65,0,0,0-.09-.18,24.61,24.61,0,0,1-6.07,2.88,26.18,26.18,0,0,0,5.13-4.82H503Zm-.35-4.42a8.57,8.57,0,0,1,.4,1.61l4.16,0-.92-2.84c.81-.15,2.66.22,2.82,1.32a1.89,1.89,0,0,1-.53,1.52l4.49,0,.44-1.56,2.33,2.31a.57.57,0,0,1-.73.31l-2.73,1.43.57-2.11H503c.15,1.43,0,3-1.12,3.54s-1.74-.26-1.54-1.69A9.46,9.46,0,0,0,502.52,306.37Z" transform="translate(-429.53 -162.5)"/><path d="M513.1,346.66c-2.71-2.82-4.25-8.16-4.84-12.65-.53,5-2.18,10.36-8.23,13,3.45-3.83,6.47-9.07,6-19.45l3.28.42c.15.33-.44,1.1-.77,1q0,.89-.07,1.85c.59,6.05,4.4,11.07,7.46,13A10,10,0,0,0,513.1,346.66Z" transform="translate(-429.53 -162.5)"/><path d="M467.26,225a54.47,54.47,0,0,0,2.11-8.05l2.73,1.19a.76.76,0,0,1-.77.57c-.26.59-.64,1.41-1.1,2.29H477l-.24.37H470a19.37,19.37,0,0,1-2.75,4V231a2.26,2.26,0,0,1-1.85-.4v-.79H464v1.89a2.89,2.89,0,0,1-1.83.55V219.32a3.66,3.66,0,0,1,1.78.59h1.5l1.85-.59Zm-3.3,4.51h1.45V220.2H464Zm4-4.18h4.29l.92-1.21L475,226c-.11.46-.53.59-1,.4l-3,4c-1.52,2-1.76,3.92.13,3.92h2.6c1.17,0,1.69-3,2.11-5,0,2.6,0,4.18,1.19,4.93-.31,1.83-1.21,1.91-3.21,1.91l-3.43,0c-3.74,0-2.82-3.78-1.63-5.87a48,48,0,0,1,3.19-4.69h-3.83Z" transform="translate(-429.53 -162.5)"/><path d="M468.38,257.53a2.81,2.81,0,0,1-1.89-.46v-1.36h-2.22l0,2a2.16,2.16,0,0,1-1.89.53l0-15.58a3.69,3.69,0,0,1,1.76.66l0-4.33,2.88.68a.88.88,0,0,1-.77.77,14.41,14.41,0,0,1-1.87,3.08h2v0l1.87-.79Zm-4.14-8.47h2.22v-5.17h-2.22Zm0,6.31h2.22l0-6h-2.22Zm8.63.59c.59.07,1-.13,1.08-1.47l.31-10.91h-2.82a17.88,17.88,0,0,1-3,5.1,36,36,0,0,0,1.78-9.59l2.93.86a.89.89,0,0,1-.81.79,23.77,23.77,0,0,1-.77,2.46h2.82l2-.73L476,255.14c0,2.88-1.58,3.5-3.34,3.74-.13-1.74-.7-2.22-2.75-3Zm-2.82-9c2.33,1.28,3.17,2.38,3.19,3.61,0,1.52-1,2.33-1.91,2.24A33.17,33.17,0,0,0,470.07,247Z" transform="translate(-429.53 -162.5)"/><path d="M461.47,265.39h8.21l-.2.33h-4.31v3.5h1.52l1.76-.59a66.9,66.9,0,0,1-.31,8.54c-.2,1.63-1.06,2.79-2.75,2.82a2.24,2.24,0,0,0-1.58-2.38l1.56.13c.33,0,.79,0,.88-.73.2-1.5.35-4.88.37-7.44h-1.45c-.07,4-.79,8.14-3.89,11.33,1.47-3.76,1.89-7.77,1.89-12.56v-2.62h-1.54Zm2.29-4.33c1.74.37,2.6,1.14,2.73,2a2.07,2.07,0,0,1-1.65,2.18C464.57,264.29,464.11,262.17,463.76,261.05Zm11.38,19.45a10.79,10.79,0,0,1-2.84-3.45A11.35,11.35,0,0,1,467,281a18.77,18.77,0,0,0,4.4-6,21.81,21.81,0,0,1-1-5.26,18.8,18.8,0,0,1-1.65,2.84A52.18,52.18,0,0,0,470.38,261l2.9,1a.91.91,0,0,1-.75.68,28.66,28.66,0,0,1-.81,3.67h5.19l-.22.35h-1.19a21.27,21.27,0,0,1-2.07,8.56,8.29,8.29,0,0,0,3.61,2.46A14.48,14.48,0,0,0,475.13,280.5Zm-4.51-11.22a16.63,16.63,0,0,0,1.45,4,26.76,26.76,0,0,0,1.34-6.58h-1.8A22.67,22.67,0,0,1,470.62,269.28Z" transform="translate(-429.53 -162.5)"/><path d="M464,290.38c1,3.43.92,6.51-.13,7.7s-1.8.44-2.42-.42A25.91,25.91,0,0,0,464,290.38Zm4.62-2.09a1.22,1.22,0,0,1-.73.84v9.77c0,.68.26.95.86.95h1.87c1.63,0,2.24-4.25,2.42-5,0,1.1,0,4.27.81,5,0,1.63-.86,2.13-1.94,2.13h-4.14c-1.36,0-2-.59-2-2.6l0-11.62Zm-1.76-4.82c2.35.44,4.62,1.67,4.93,3.41a3.64,3.64,0,0,1-1.52,3.34A39.73,39.73,0,0,0,466.84,283.47Zm6.2,6.93c2.13,1.52,3.87,3.1,4,5.26a2.22,2.22,0,0,1-2.33,2.57A50,50,0,0,0,473,290.4Z" transform="translate(-429.53 -162.5)"/></svg>