<?xml version="1.0" encoding="utf-8"?>
<!-- Generator: Adobe Illustrator 21.0.0, SVG Export Plug-In . SVG Version: 6.00 Build 0)  -->
<svg version="1.1" id="图层_1" xmlns="http://www.w3.org/2000/svg" xmlns:xlink="http://www.w3.org/1999/xlink" x="0px" y="0px"
	 viewBox="0 0 460 150" style="enable-background:new 0 0 460 150;" xml:space="preserve">
<g>
	<path d="M48.2,141.5c-2.5,1.1-10.2,1.5-13.6-3.1V132H17.9v8.5c-4.2,3.8-9,3.4-13.5,3.3V74.5c5.6,0.6,9.8,2.8,13.5,6.4h16.6l13.6-6
		L48.2,141.5L48.2,141.5z M17.9,128.7h16.6V84.3H17.9V128.7z M85,68.6c-2.3,0.7-11.3,0.2-14.6-4.4v-6.9H34.9v7.7
		c-4,3.6-10.4,4.2-14.6,4V9.8c5.1,0.6,11,2.5,14.6,5.6h35.9l14.2-6V68.6z M34.9,54.8h35.6V18.1H34.9V54.8z M101.1,142.3
		c-2.8,0.7-9.6,1.5-13.3-3.4v-7.3H70v8.4c-4.4,3.7-8.8,3.4-13.3,3.3V74.6C62,75.4,66.2,77.5,70,81h17.8l13.3-6.2V142.3z M70,128.2
		h17.8V84.1H70V128.2z"/>
	<path d="M153.1,143.3c-2.6,0.9-9.3,0-12.7-3.6V87.2h-8.5c-1.5,21.1-5.9,40.3-18.1,58.5c5.6-25.1,7.3-46.6,7.3-89.8V20l15.3,3.7
		c-0.5,3.3-2,4.6-3.6,5.3l-0.2,27h7.5V8.8l16.6,3.6c-0.5,3.1-2.5,4.9-4.5,5.4V56h6.9l-1.4,2.6h-25.1c0,9.1-0.2,17.7-0.6,26h9.5
		l11.6-3.4L153.1,143.3L153.1,143.3z M154.9,109.1H189V85l18,3.4c-0.9,2.3-2,3.7-4.5,4.8V109h21.7l-1.7,2.6h-20v30.5
		c-3.8,3.7-10.4,3.7-13.5,3.7v-34.2h-32.8L154.9,109.1z M218,85.2c-2.5,0.7-9.6,0.2-13-3.4v-5h-15.8c-5.1,13.6-13.8,22.9-27.9,29.9
		c7.3-9.5,13.1-17.8,16.9-29.9h-5.3v4.6c-4,2.6-8.7,3.1-12.7,2.9V20.8c5.4,0.7,8.8,2.2,12.4,4.4h6.2l-0.2-20l17.5,4.8l-15.3,15.1
		h24.1l13-4V85.2z M182.6,27.8h-9.8v22.8h9.6C183,43.9,183,36.5,182.6,27.8z M182.3,53.2h-9.5v21.2h6
		C180.6,68.5,181.7,61.5,182.3,53.2z M190.1,74.4h14.9V53.1h-10.7C193.4,61.2,192.1,68.2,190.1,74.4z M194.6,50.6h10.4V27.8h-9.6
		C195.4,36.2,195.2,43.7,194.6,50.6z"/>
	<path d="M231.8,56.4h55.6l-1.3,2.6h-21.2C259.8,71.9,249.4,88.1,242,99l26.2-2.3c-1.7-7.9-3.8-15.8-5.9-20.9
		c21.2,13,30.8,31.3,10.4,41.5c-0.9-4.2-2.2-10.4-3.6-16.7l-26.2,16.9c0.6,3.4-0.3,5.1-3.6,6.7l-7.3-24.1l4.8-0.5
		c4.4-13.3,8.2-26.6,11.3-40.4h-15.3L231.8,56.4z M237.6,24.5h44.3l-1.4,2.3h-41.9L237.6,24.5z M310,125.3c4,0,5.4-5.9,5.4-9.6
		c1.5-22.3,2.9-46.6,3.4-69.8h-10.2c-2.9,65.6-15.7,76.2-46.4,99.3c19.7-22,30-51.4,31.9-99.3h-9.6l-1.3-2.5h11
		c0.3-11.8,0.3-24.8-0.3-39l20.6,4c-0.3,3.7-3.1,5.6-5.1,6c-0.2,10.7-0.3,20.2-0.6,29h10v-0.2l15-3.8c-0.6,25.5-1.4,51.4-2.9,76.9
		c-1.1,18.9-8.7,25.1-22.4,26.3c-0.3-6.8-1.8-12.8-14.9-18.2L310,125.3z"/>
	<path d="M364.3,88.9c4.6,16.7,4.6,33.9-2.3,40.6c-7.1,6.9-14.2,0-16.1-9.9C353.2,111.6,360.3,101,364.3,88.9z M411.3,9.4
		c-0.5,3.4-2.3,4.6-4.9,5.1c-0.7,4.9-1.7,9.6-2.6,13.8h49.4l-1.4,2.5h-42.8c6.7,11.8,22.6,28.8,46.8,33.9c-4.4,5.4-8.5,11-12.2,20.6
		c-13-7.9-28.6-21.3-35.9-54.5h-4.4c-2.2,8.2-4.6,15.1-7.6,21.1c7.6,2.6,17.2,7.1,17.7,15.8c0.3,9.1-7.6,11.9-11,13.1
		c-1.7-6.4-4.4-17.5-8-26.4c-10.5,18.9-26.3,26.6-47.5,35.2c11.5-10.7,33.3-26.6,41.2-58.7h-37.7l-0.9-2.5h39.2
		c1.5-7.1,2.5-15.1,2.5-24.1L411.3,9.4z M374.9,89.6l17,3.7c-0.3,2.8-2,4-4.2,4.5v23.7c0,5.3,2.6,5.6,4.8,5.6h18.7
		c7.9,0,12.6-18.4,14.6-26.8c0.3,9.8,0.7,22.8,7.3,27.5c-1.7,12.6-7.1,12-15.8,12h-28.4c-10.2,0-13.9-2.8-13.9-16.2L374.9,89.6
		L374.9,89.6z M391.6,78.3c9,2.6,21.5,8.2,22.8,19c1.4,13.6-8.5,15.1-13.3,13.8C399.1,102.9,396.4,88.5,391.6,78.3z M429.3,88.5
		c12.6,4.9,23.9,13.3,25.1,23.2c1.4,11.8-5.9,15.5-11.6,16.1C440.6,119.1,435,100.1,429.3,88.5z"/>
</g>
</svg>
