<?xml version="1.0" encoding="utf-8"?>
<!-- Generator: Adobe Illustrator 21.0.0, SVG Export Plug-In . SVG Version: 6.00 Build 0)  -->
<svg version="1.1" id="图层_1" xmlns="http://www.w3.org/2000/svg" xmlns:xlink="http://www.w3.org/1999/xlink" x="0px" y="0px"
	 viewBox="0 0 460 150" style="enable-background:new 0 0 460 150;" xml:space="preserve">
<title>品牌家族</title>
<path d="M47.9,141.6c-2.5,1.1-10.2,1.6-13.6-3.1V132H17.7v8.5c-4.2,3.9-9,3.4-13.5,3.2V74.5c5.1,0.5,9.9,2.7,13.5,6.3h16.6l13.6-6
	L47.9,141.6z M17.7,128.7h16.6V84.3H17.7V128.7z M84.7,68.7c-2.3,0.8-11.3,0.2-14.5-4.3v-7H34.6v7.7c-4,3.6-10.4,4.2-14.5,4V9.8
	c5.1,0.6,11,2.5,14.5,5.6h35.9l14.2-6L84.7,68.7z M34.6,54.7h35.6V18H34.6V54.7z M100.8,142.3c-2.8,0.8-9.6,1.6-13.3-3.4v-7.3H69.7
	v8.4c-4.3,3.7-8.8,3.4-13.3,3.2V74.5c5,0.6,9.7,2.8,13.3,6.3h17.8l13.3-6.2L100.8,142.3z M69.7,128.3h17.8V84.1H69.7L69.7,128.3z"/>
<path d="M152.8,143.3c-2.6,0.9-9.3,0-12.7-3.6V87.2h-8.5c-1.6,21.1-5.9,40.2-18.1,58.5c5.6-25.1,7.3-46.6,7.3-89.8V20l15.3,3.7
	c-0.5,3.2-2,4.6-3.6,5.3L132.3,56h7.4V8.8l16.6,3.6c-0.2,2.6-2,4.7-4.5,5.4V56h7l-1.4,2.6h-25c0,9.1-0.2,17.7-0.6,26h9.4l11.6-3.4
	L152.8,143.3z M154.6,109.1h34.1v-24l18,3.4c-0.7,2.2-2.3,4-4.5,4.8v15.8h21.7l-1.7,2.6h-20v30.5c-3.9,3.7-10.4,3.7-13.5,3.7v-34.2
	h-32.8L154.6,109.1z M217.6,85.2c-2.5,0.8-9.6,0.2-13-3.4v-5h-15.7c-5.1,13.6-13.8,22.9-27.9,29.9c7.3-9.4,13.2-17.8,16.9-29.9h-5.3
	v4.6c-4,2.6-8.7,3.1-12.7,2.9V20.8c4.4,0.5,8.6,2,12.4,4.3h6.2l-0.2-20l17.5,4.8l-15.3,15.2h24.2l13-4L217.6,85.2z M182.4,27.8h-9.7
	v22.7h9.6C182.7,42.9,182.7,35.4,182.4,27.8L182.4,27.8z M182,53.2h-9.4v21.2h6C180.5,67.5,181.7,60.4,182,53.2L182,53.2z
	 M189.8,74.4h14.9V53.2H194C193.3,60.4,191.9,67.5,189.8,74.4L189.8,74.4z M194.3,50.5h10.4V27.8h-9.6
	C195.1,36.1,194.9,43.7,194.3,50.5z"/>
<path d="M248.5,44.8h72.9l-1.4,2.6h-30.9c-3.8,4.6-8.2,8.6-13,12.1c8.1,7,14.1,15.6,17,24.8c7.9-9.4,15.6-19.7,22.4-32l14.7,17.2
	c-1.4,2.6-4.7,3.6-7.4,2.2c0,0,0,0-0.1,0c-5.7,4.5-12,8.1-18.7,10.8c8.7,20.3,23.1,31.9,33.6,36.2c-6,5-11.5,10.2-16.3,18.6
	c-8.8-10.8-16.9-26.9-18.9-54c-3.1,1.2-6,2.3-9,3.2c0.2,0.3,0.2,0.6,0.3,0.8c6.2,25.5,2,57-22.4,56.8c1.1-15.5-14.5-17.2-14.5-17.2
	l12.4-1.2c6.8-0.6,10.8-4.5,12.1-13.8c0.3-2.8,0.5-5.7,0.6-8.8c-14.1,12.1-32.8,22.4-52.5,29.4c17.2-13,41-34.7,51.1-48.9
	c-0.3-2-0.8-3.9-1.1-5.7c-12.4,11.8-32.5,22.6-49.1,28.2c12.7-10.2,35.6-30.3,44.3-43.7c-0.1-0.4-0.3-0.9-0.6-1.2
	c-11.9,8.4-27.2,15-42.7,20.3c12.5-9.9,24.9-19.2,36.1-33.9h-17.8L248.5,44.8z M246,13.7c1.3,3.7,2.2,7.5,2.8,11.3l29.3-0.3l-6.5-20
	c5.7-1.1,18.7,1.6,19.8,9.3c0.4,3.9-1,7.9-3.7,10.7l31.6-0.2l3.1-11l16.4,16.3c-1.1,2.5-3.4,2.6-5.1,2.2l-19.2,10l4-14.9h-69.4
	c1.1,10.1-0.2,21.1-7.9,24.9c-7.4,3.7-12.2-1.8-10.8-11.9C237.6,32.7,243,23.6,246,13.7L246,13.7z"/>
<path d="M345.7,32.9h49.2l-1.2,2.5h-23.5L370,57.8v1.8h7.9l11.3-4.2c0.3,20.3-0.2,50.5-2,68.4c-1.2,11.6-6.3,16.7-17,16.9
	c-0.5-6.5-0.6-11.3-10.2-16.6l9.6,0.9c2.2,0.2,4.5,0,5-5c1.4-10.4,2.9-39.9,3.1-58.1H370c-0.5,25.5-5.3,60.4-24.9,81.3
	c9.4-26.3,12.1-54.2,12.1-87.8V35.4h-10.5L345.7,32.9z M358.7,4.1c9.8,2.6,15.2,5.9,16.9,13c1.6,6.8-4,13-10.1,14.5
	C364,24.7,360.9,12,358.7,4.1L358.7,4.1z M391.7,87.9h20c1.1-9.5,1.7-19.1,1.7-28.6h-2.6c-5,8-11.6,16.9-18.7,23.4
	c2.8-6.3,11.9-30.3,13.8-47.5l16.7,7.4c-0.9,2.8-2.6,3.7-5.3,4.5c-1.5,3.3-3.1,6.6-4.9,9.8h39.3l-1.6,2.5h-22.8
	c0.2,9.6-0.3,19.1-1.6,28.6h29l-1.4,2.3H427c6.7,18.7,17.7,28.5,28.8,33.4c-3.7,5.7-7.9,11-12.5,19.7c-2.9-2.8-15.5-18-17.5-53.1
	h-0.3c-6,38.7-25.4,45.8-42.4,53.4c15.9-17.5,24.8-29.3,28.3-53.4h-18.4L391.7,87.9z M418.5,12.4c-0.9,2.9-2.6,4.2-5,4.5
	c-1.6,3.4-3.4,7.4-5.9,11.8h45.8l-1.4,2.3h-45.7c-4.8,8.2-10.8,17-18.4,23.8c3.6-8.5,11.5-29.9,11.9-50.3L418.5,12.4z"/>
</svg>
