<?xml version="1.0" encoding="utf-8"?>
<svg version="1.1" xmlns="http://www.w3.org/2000/svg" xmlns:xlink="http://www.w3.org/1999/xlink" x="0px" y="0px"
	 viewBox="0 0 460 150" xml:space="preserve">
<g>
	<path d="M1.6,39.2h15.2V6.3l17.7,3.4c0.2,2.3-0.6,5.4-4.2,6.2v23.3h12.1L41,41.7H30.3v24.7l9.8-3.4c-3.6,4-6.7,7.5-9.8,10.6v54.6
		c0,6.7-3.1,16.9-17.6,17.7c0-5.8-2.5-11.5-12.7-17.7l13.4,0.3c3,0,3.4-3.6,3.4-5.6v-37c-2.2,1.9-4.5,3.7-6.8,5.9
		c0.2,2.6-0.9,5-2.8,6.7L0.5,76.9l16.3-5.6V41.6h-14L1.6,39.2z M71.6,15.6c-0.9,2.8-3,3.9-5.3,4.4c-1.9,6.4-3.9,12.3-6.1,17.9h49.5
		l-1.7,2.6H85.9V70h21.6l-1.6,2.6h-20v29.1h21.4l-1.6,2.5H85.8v30.1h23.9l-1.7,2.6H59.1v5.4c-4,2.3-9.2,3.4-14,3.4v-78
		c-3.7,5.6-7.6,10.7-11.7,14.9c9.2-23.8,15.5-49,17.9-75L71.6,15.6z M59.1,70.1h12.7V40.6H59.1V70.1z M59.1,101.8h12.7V72.7H59.1
		V101.8z M59.1,134.5h12.7v-30.1H59.1V134.5z M72.5,7.2c11.7,2.8,18,8.1,18,14.8c0.2,9.9-6.5,12.6-10.7,12.6
		C78.3,27.8,75,13.4,72.5,7.2z"/>
	<path d="M119.5,49.1h33.9c3.1-6.7,5.4-13.4,6.5-19.6l16.8,9.9c-0.9,3-2.8,4.4-5.6,4.4c-0.8,1.9-1.6,3.6-2.5,5.3h55l-1.4,2.5h-54.8
		c-5.1,10.1-11,18.3-17.6,25.5v63.6c-4.7,3.3-9.3,3.9-14.1,3.7v-54c-6.1,5.1-12.4,9.5-18.8,13.8c3.1-3.6,10.7-12.9,18.8-24.7V65.8
		c3,0.5,5.4,0.9,7.8,1.9c3.1-5.3,6.1-10.7,8.7-16.2h-31.7L119.5,49.1z M117.1,20.7h27.7V5l17.6,3.6c-0.5,3-2.6,5.1-4.2,5.8v6.4h23.3
		V4.5l17.7,3.6c-0.5,3.1-2.8,5.1-4.7,5.6v7.1h30.8l-1.4,2.3h-29.4v11.2c-3.3,3.6-10.3,3.7-13.1,3.7V23.1h-23.3v11.2
		c-3.4,3.6-10.6,3.7-13.4,3.7V23.1h-26.4L117.1,20.7z M158.6,66.8h40.6l3.7-10.1l15.9,15.2l-23.3,14v11.3h30.1l-1.2,2.6h-28.9V124
		c0,14.9-5.3,18.3-20.2,20c0-8.5-1.6-17.4-17.9-21.1l18.5,1.6c4,0.5,5.3-1.9,5.3-5.9V99.8h-27.8l-1.2-2.6h29.1V81.3l12.3,1.4
		l4.8-13.5h-38.7L158.6,66.8z"/>
	<path d="M238,92h42.7V79.6l17.9,3.9c-0.5,3.3-2.3,4.7-4.2,5.1V92h42.4l-1.6,2.5H299c5.9,8.2,24.4,18.3,44,20.5
		c-5.6,6.1-10.1,12.6-13.8,19.6c-5.4-2.3-25-10.6-32.6-40.1h-2v46.8c-3.1,2.8-11.2,3.9-13.7,3.4v-37c-12,13.7-27.7,24.4-47.9,30.6
		c14-11.7,32.8-29.1,40.4-43.8h-34.2L238,92z M234.7,20.7h27.5V4.1L279,7.7c-0.5,3-2.6,5-4.2,5.6v7.5H297V4.2l16.8,3.6
		c-0.3,3.1-2.6,5-4.5,5.6v7.5h31.9l-1.4,2.5h-30.5v9.2c-3.3,3.6-9.6,3.7-12.3,3.7V23.4h-22.2v12.4c-3.4,3.6-9.8,3.7-12.6,3.7V23.3
		h-26.4L234.7,20.7z M330.1,47.9c-28.6,3-73.1,5.8-90.9,3.9c9.2-1.6,62.9-12.3,78.7-20.7L330.1,47.9z M250.1,58.4
		c9.3,2,17.2,5.1,19,12.4c2.2,9.6-6.4,13.8-10.6,13.8C256.2,76.3,253.1,66.8,250.1,58.4z M277.9,53c10.4,2.3,18.3,6.2,18.2,14
		c-0.3,8.5-7.1,12.1-10.9,12.9C283.3,71.5,280.7,61.5,277.9,53z M328.7,64.8c-1.1,3-3.3,3.1-5.4,2.5c-6.7,7.8-13.8,14.1-21.3,19.1
		c3.7-9.2,8.9-24.7,10.3-34.2L328.7,64.8z"/>
	<path d="M350.1,59h12.4l11-5.3l0.2,56.8l14.5-9.6L370.3,134c0,2.3-0.6,4.5-2,5.8L357.9,121l3.7-2.5V61.4h-11L350.1,59z M356.8,6
		c6.1,0.5,19.7,5.1,21.6,16c2,11.3-7.9,15.7-13.1,13.8C363.5,28.1,359.3,12.6,356.8,6z M383.2,26.6h20.2c-1.7-7.1-4-15.5-5.9-21.4
		c7.9,0.5,17.3,4.4,17.3,12c0,4.7-2.2,7.8-5,9.5h17.4l2.6-21.4l16.6,7.1c-0.9,2.3-3.3,3.3-5.6,3l-10.4,11.2h27.2l-1.2,2.3h-23.6
		v41.8h24.4l-1.4,2.3h-74.2l-1.2-2.3h22.1V28.9h-17.9L383.2,26.6z M389.7,66.4c-1.4-8.2-3.4-21.8-5.6-29.5
		c12.1,5,16.3,10.6,15.9,19.3C399.6,62.2,394.2,65.7,389.7,66.4z M447.5,143.2c-2.8,0.5-9.5,0.2-13.2-3.6v-3.1h-30.6v4.5
		c-4.5,3-8.2,3.4-12.7,3.3V82.2c5.4,0.6,8.5,2,12.4,4.5h31.4l12.7-4.2L447.5,143.2L447.5,143.2z M403.7,108.9h30.6V89.2h-30.6V108.9
		z M403.7,134.1h30.6v-22.5h-30.6V134.1z M413.9,70.7h7.1V28.9h-7.1V70.7z M456.5,45.2c-0.8,2.2-3.4,3-5.6,2.2l-15.7,20.8l6.2-32.3
		L456.5,45.2z"/>
</g>
</svg>
