<?xml version="1.0" encoding="utf-8"?>
<svg version="1.1" xmlns="http://www.w3.org/2000/svg" xmlns:xlink="http://www.w3.org/1999/xlink" x="0px" y="0px"
	 viewBox="0 0 460 150" xml:space="preserve">
<g>
	<path d="M1.6,38.9h15.3v-33l17.8,3.4c0.2,2.3-0.7,5.4-4.2,6.2v23.4h12.1l-1.4,2.5H30.4v24.8l9.9-3.4c-3.6,4-6.7,7.5-9.9,10.6v54.7
		c0,6.7-3.1,17-17.6,17.8c0-5.7-2.5-11.6-12.8-17.8l13.4,0.3c3,0,3.5-3.6,3.5-5.6V85.7c-2.2,1.9-4.5,3.8-6.9,5.9
		c0.2,2.6-0.9,5-2.8,6.7L0.5,76.6L16.8,71V41.4h-14L1.6,38.9z M71.8,15.4c-0.9,2.8-3,3.9-5.3,4.3c-1.9,6.4-3.9,12.3-6.1,17.9H110
		l-1.7,2.6H86v29.6h21.7l-1.6,2.6H86v29.1h21.5l-1.6,2.5H86v30.2h23.9l-1.7,2.6H59.3v5.4c-4,2.3-9.2,3.4-14,3.4V67.5
		c-3.8,5.6-7.6,10.7-11.6,14.9c9.2-23.9,15.6-49.1,17.9-75.1L71.8,15.4z M59.3,69.9h12.8V40.3H59.3V69.9z M59.3,101.7h12.8V72.6
		H59.3V101.7z M59.3,134.5h12.8v-30.2H59.3V134.5z M72.7,6.9c11.6,2.8,18,8.1,18,14.8c0.2,10-6.6,12.6-10.7,12.6
		C78.4,27.5,75.2,13.2,72.7,6.9z"/>
	<path d="M119.8,48.9h34c3.1-6.7,5.4-13.4,6.6-19.6l16.8,10c-0.9,3-2.8,4.3-5.6,4.3c-0.8,1.9-1.6,3.6-2.5,5.3h55l-1.4,2.5h-54.9
		c-5.2,10.1-11.1,18.4-17.6,25.5v63.8c-4.7,3.3-9.4,3.9-14.2,3.8V90.4c-6.1,5.2-12.5,9.5-18.9,13.9c3.1-3.6,10.7-13,18.9-24.8V65.8
		c3,0.5,5.4,0.9,7.8,1.9c3.1-5.3,6.1-10.7,8.7-16.2h-31.7L119.8,48.9z M117.4,20.5h27.7V4.7l17.6,3.6c-0.5,3-2.6,5.2-4.2,5.7v6.4
		h23.4V4.1l17.8,3.6c-0.5,3.1-2.8,5.2-4.7,5.6v7.1h30.9l-1.4,2.3H195v11.2c-3.3,3.6-10.3,3.8-13.1,3.8V22.8h-23.4V34
		c-3.5,3.6-10.6,3.8-13.4,3.8V22.9h-26.5L117.4,20.5z M159,66.6h40.7l3.8-10.1l15.9,15.3l-23.4,14v11.4h30.2l-1.2,2.6h-29v24.3
		c0,14.9-5.3,18.4-20.3,20.1c0-8.5-1.6-17.5-17.9-21.2l18.5,1.6c4,0.5,5.3-1.9,5.3-5.9V99.8h-27.9l-1.2-2.6h29V81.3l12.3,1.4
		l4.8-13.5H160L159,66.6z"/>
	<path d="M238.2,37.1h46.3c-3.6-11.6-7.6-22.2-12-32.2c10.9,0.8,21.7,5.6,25.1,12.1c5.4,10.4-2.1,17.8-9.4,20.1h52l-1.6,2.5h-41.8
		v41.6h35.9l-1.4,2.5h-34.5v50.2h45.6l-1.2,2.6H235.7l-1.1-2.6h46.8V83.6h-33.9l-0.9-2.5h34.9V39.5h-42L238.2,37.1z"/>
	<path d="M351.2,68h55.3l-1.2,2.5h-16.8v21.7h17.7l-1.2,2.5h-16.5V121c1.2,0.5,2.6,0.7,4.2,0.8c24,3.1,60.3,1.7,68.6,0.7
		c-3.9,5.4-6.9,10.6-9.2,19.3c-8-0.5-35.9,1.1-55.6-3c-14.7-3.1-23.9-12.8-29-32.1c-2.3,13.4-7.5,28.4-17.7,38.8
		c4.8-22,8-42.5,6.9-66.1l17,5.4c-0.5,2.8-1.7,4.7-4.3,5.2c-0.2,3.9-0.7,8.5-1.2,13.1c2.2,3.8,4.7,7.3,7.8,10.4v-43h-23.6L351.2,68z
		 M398.3,60.5c-2.6,0.3-8.5,0-11.8-3.8v-3h-15.4v3.6c-3.9,2.6-8,3.3-11.8,3.1V7.2c4.8,0.7,8.5,2.3,11.8,4.8h15.4l11.8-4.5V60.5z
		 M370.9,31.4h15.5V14.6H371L370.9,31.4L370.9,31.4z M370.9,51.5h15.5V33.7H371L370.9,51.5L370.9,51.5z M432.1,90.1
		c-4.3,13.7-13.7,24.3-34.1,29.6c27-19.3,26.5-45.8,25.7-73.5l15.9,3c-0.5,2.6-2.2,3.8-3.8,4.5c-0.2,12.1-0.3,23.6-3,33.5
		c8.1,1.7,20.4,4.7,23.6,14.8c2.3,8.1-4,13.5-9.9,13.9C442.2,106.6,437.5,97.8,432.1,90.1z M402.5,11.6h57.9l-1.4,2.3h-21.3
		l-12.2,20h16.2l12-3.9v58.3c-1.9,0-8.3-0.2-12-3.5V36.1h-22.6v50.6c-2.3,3.1-7.5,4.8-11.1,4.7V30c3.1,0,7.8,1.4,11.1,3.9h3.9
		l0.2-19.9h-19.4L402.5,11.6z"/>
</g>
</svg>
