<?xml version="1.0" encoding="utf-8"?>
<svg version="1.1" xmlns="http://www.w3.org/2000/svg" xmlns:xlink="http://www.w3.org/1999/xlink" x="0px" y="0px"
	 viewBox="0 0 460 150" xml:space="preserve">
<g>
	<path d="M9.8,21.2c5.3,0.4,10.8,2.6,13.9,5.6v0.3c6.8-6.3,13.1-14.7,18.6-22.9l13.4,15.9c-6.2,2.8-21.4,8.2-32,10.3v18.7h13.7
		l13.7-4.4v52.9c-2.6,0.8-10.2-0.3-13.7-3.1v-8.8H22.9c-2.2,28.3-9.8,44.3-22.9,60.1c6-18.1,9.8-42.7,9.8-64.9
		C9.8,80.9,9.8,21.2,9.8,21.2z M23.1,83.2h14.2V51.9H23.6V66C23.6,72.1,23.4,77.8,23.1,83.2z M58.9,19.2c6,0.5,10.5,2.9,13.9,5.9
		v1.4c5.4-2.9,12.4-7.2,21.1-18.6L110,20.7c-8.1,3.9-24.2,7.2-37.1,8.8v28.6h36.8l-1.4,2.5H97.8v80.4c-4.4,3.3-9.2,3.9-13.9,3.7
		V60.6H72.7c-0.4,43.3-12.9,67.7-38.7,84.9c15.8-23.4,24.7-48.1,24.7-82.7V19.2H58.9L58.9,19.2z"/>
	<path d="M194.7,54.9v-0.2l14.7-4.6l0.3,72.4c0,13.9-5.6,20.3-19.8,23.4c-2.9-11.9-4.6-14.1-17.3-18.5l18.1,0.8
		c3.3,0.2,4.1-3.3,4.1-7.4v-18.6h-37v39.4c-2.9,2.8-11.1,3.7-14.7,3.7V72.1c-7.2,8.7-15.4,16.5-25.3,23.4
		c8.2-11.8,17.5-27.4,25.3-45.4v-0.5l0.2,0.2c2.5-5.9,4.8-11.9,6.8-18.3h-29.8l-1.1-2.4h31.5c2.5-8.1,4.4-16.5,5.9-24.9l20.4,8.1
		c-1.3,4.3-2.9,4.8-5.9,5.3c-1.4,4.1-2.6,8-4.2,11.6h60l-1.4,2.4h-59.4c-3.1,8-6.5,15.2-10.5,22.2c0.8,0.4,1.4,1,2,1.4h37
		L194.7,54.9L194.7,54.9z M157.5,77.1h37v-20h-37V77.1z M157.5,99.8h37V79.5h-37V99.8z"/>
	<path d="M238.9,92.4h42.6V80.1l17.7,3.9c-0.4,3.3-2.4,4.6-4.2,5.2v3.3h42.3l-1.5,2.5h-36.1c5.9,8.2,24.3,18.3,43.8,20.4
		c-5.6,6-10,12.6-13.9,19.6c-5.4-2.4-24.9-10.5-32.5-39.9h-2v46.6c-3.1,2.8-11.1,3.9-13.7,3.3v-36.8c-11.9,13.7-27.5,24.3-47.6,30.5
		c13.9-11.6,32.7-29,40.2-43.7h-34L238.9,92.4z M235.7,21.7h27.4V5l16.8,3.5c-0.4,2.9-2.6,4.9-4.2,5.6v7.4h22.2V4.8l16.8,3.5
		c-0.3,3.1-2.6,4.9-4.4,5.6v7.4H342l-1.4,2.5h-30.3v9.1c-3.3,3.5-9.6,3.7-12.3,3.7V23.7h-22.2v12.4c-3.3,3.5-9.8,3.7-12.6,3.7V23.7
		h-26.3L235.7,21.7z M330.7,48.7c-28.5,2.9-72.9,5.7-90.5,3.9c9.1-1.5,62.7-12.3,78.4-20.5L330.7,48.7z M251.1,59.1
		c9.2,2,17.2,5.2,18.8,12.4c2.2,9.6-6.3,13.9-10.5,13.9C257,76.9,254,67.4,251.1,59.1z M278.7,53.6c10.3,2.4,18.3,6.2,18.1,13.9
		c-0.3,8.5-7.2,12-10.9,12.9C284.1,72.1,281.5,62.2,278.7,53.6z M329.3,65.4c-1.1,2.9-3.3,3.1-5.4,2.5c-6.7,7.7-13.9,14.1-21.2,19
		c3.7-9.1,8.8-24.6,10.2-34L329.3,65.4z"/>
	<path d="M350.7,59.7h12.4l11-5.3l0.2,56.7l14.4-9.6l-17.7,33c0,2.4-0.5,4.4-2,5.7l-10.3-18.8l3.7-2.5v-57h-11L350.7,59.7z
		 M357.3,6.8c6,0.4,19.6,5.2,21.5,15.9c2,11.3-8,15.7-13,13.9C364,28.9,359.8,13.4,357.3,6.8z M383.6,27.4h20.2
		c-1.7-7.2-4.1-15.5-5.9-21.4c8,0.4,17.2,4.3,17.2,11.9c0,4.6-2.2,7.7-4.9,9.5h17.3L430.1,6l16.6,7.2c-1,2.4-3.3,3.3-5.6,2.9
		l-10.4,11.3h27.1l-1.3,2.4h-23.6v41.6h24.3l-1.4,2.4h-74l-1.3-2.4h21.9V29.7h-17.7L383.6,27.4z M390.1,66.9
		c-1.4-8.2-3.3-21.6-5.6-29.4c12,4.9,16.2,10.5,15.8,19.2C400,62.9,394.6,66.4,390.1,66.9z M447.6,143.4c-2.8,0.4-9.5,0.2-13.1-3.5
		v-3.1H404v4.4c-4.4,2.9-8.2,3.3-12.7,3.3V82.7c5.4,0.5,8.5,2,12.4,4.4h31.2l12.7-4.2V143.4L447.6,143.4z M404.1,109.3h30.5V89.7
		h-30.5V109.3z M404.1,134.4h30.5v-22.5h-30.5V134.4z M414.2,71.4h7.2V29.8h-7.2V71.4z M456.7,45.9c-0.8,2.2-3.3,2.9-5.6,2.2
		l-15.6,20.8l6.2-32.2L456.7,45.9z"/>
</g>
</svg>
