<?xml version="1.0" encoding="utf-8"?>
<svg version="1.1" xmlns="http://www.w3.org/2000/svg" xmlns:xlink="http://www.w3.org/1999/xlink" x="0px" y="0px"
	 viewBox="0 0 460 150" style="enable-background:new 0 0 460 150;" xml:space="preserve">
<g>
	<path d="M35.6,12.7c0.9,2.3-1.9,6.6-4.2,5.8c-2.1,9.8-6.1,21.1-11.2,32.5l7.4,3.1c0.5,2.7-1.9,4.3-3.5,4.3l0.2,80.7
		c-3.8,5-9.6,4.5-13.4,4.5V69.2C7.4,75.2,3.8,81.1,0,86.5C6.9,66.6,14.3,36.2,17.1,6.6L35.6,12.7z M26.1,45.2h16V9.5l18,3.2
		C59.5,16.5,57.8,18,55,18v27.3h16.5l-1.4,2.6H55v30.6l10.8-3.2c2.9-13,9.3-37.5,10.8-66.7l18.5,5.7c0.2,3.7-2.6,5.8-5,5.6
		c-1.9,8.6-3.8,16-6,22.5h27.1l-1.1,2.4h-6c-1.4,27.7-5.8,46.8-11.7,60.5c5.4,7.5,11.9,13.7,19.9,19.1c-5,6.1-8.8,11.1-11.5,18.5
		c-3.8-3.8-10.1-10.6-15.7-23.7c-9.6,14-21,19.6-29.7,25.8c3.8-4.6,7.5-9.1,11.1-13.8c-3.5,0.3-8.6,0.8-11.5-1.7V122H42.4v8.5
		c-4,2.4-8,2.3-12.3,2.1V74.1c5.3,0.6,8.6,1.9,12,4V48H27.3L26.1,45.2z M42.4,119.5h12.5V80.7H42.4V119.5z M67.4,77.3V130
		c5-6.9,9.4-14.6,13.1-23.9c-3.1-10.6-5.4-24-6.1-41.2C72,69.3,69.6,73.3,67.4,77.3z M75.5,62.6c2.6,11.5,5.7,21.3,9.6,29.5
		c3.2-12.7,5.4-27.9,5.7-47.4h-7.5C80.8,51.5,78.3,57.3,75.5,62.6z"/>
	<path d="M128.1,73.8c-3.1-9.3-7.2-23.7-11.4-30c10,1.1,19.1,6.1,21.1,11.7C140.3,62.8,135.8,70,128.1,73.8z M119.7,93.3
		c3.2,1.3,6.1,2.9,10.1,6.8l22.8-67.2l-15.4,76.3c11.7,14,3.7,30.2-5.7,36.5C129.6,131,127.3,115,119.7,93.3z M138.1,40
		c-2.9-9.8-8.5-22.9-12-30.2c9.8,1.7,19.6,6.6,21.4,12.2C150.2,30.2,145.6,37.1,138.1,40z M154.8,38.7h21.4V5.2L195,8.9
		c-0.5,2.9-2.1,5-4.8,6.1v23.6h27.2l-1.4,2.6h-25.7V74h32.8l-1.4,2.4h-32.9c-5.4,11.4-14.6,27.4-27.6,40.4l39.1-1.4
		c-3.5-10.1-7.2-20-9.6-25.1c16.3,9.3,30,21.7,31.6,34.2c1.4,11.7-6.1,16.3-13.3,19.7c-1.3-5.1-4.2-14.8-7.5-25L159.2,135
		c0,3.4-2,6.1-3.8,7.2l-7.1-24.8l7.5-0.3c9.1-16,13.7-33.8,14.4-40.5H151l-1.1-2.4h26.3V41.5H156L154.8,38.7z"/>
	<path d="M234,59.5h21.3V17l17.4,4c-0.6,3.2-1.9,4.3-4,4.8v33.7h15.7V4.2l18.9,3.7c-0.3,3.7-2.1,5-4.5,5.6v18H332l-1.6,2.5h-31.7
		v25.5h42l-1.3,2.4H235.1L234,59.5z M334.2,89.3c-1.6,3.1-3.4,3.8-6.1,3.1c-28.7,44.2-69.9,49.2-93.6,53.4
		c20.7-10.1,70.4-34.8,82.1-72.5L334.2,89.3z M274.7,85.3c-0.9,2.7-2.9,3.2-5.1,2.6c-8.2,11.2-18.8,23.2-33.7,30.8
		c7.5-11.4,18.6-30.6,21.8-45.2L274.7,85.3z M281.6,65l19.7,4c-0.3,3.7-2,5.1-4.6,5.7v29.5c-3.5,3.5-9.7,5.1-15.1,4.6V65z"/>
	<path d="M350.5,17.3h22.3l12.2-4.5l-2.6,60.6l4.6-1.4c-0.3,16.2-1.4,35.9-2.4,52.2c-1.3,14.4-8.6,17.8-19.6,19.7
		c-0.3-9.8-4.2-14.6-12.7-17.8l13.8,0.8c3.8,0.5,5.6-1.1,6-7.4c0.5-7.2,1.3-17.5,1.7-27.1c-5.8,6.6-12.3,12.8-18.9,17.7
		c0,3.1-0.8,4.3-2.3,5.3l-4.3-19.1c8.2-0.9,17-2.3,25.5-4.5c0.3-5.3,0.6-10.1,0.8-14.1h-11.9l-0.2,3.8c-2.3,2.7-8,3.1-10.8,2.6
		l2.6-55.6l13.8,4.2c-0.5,2.6-2,4.2-3.5,4.2l-2,38.5h7.7l2.1-55.6h-21.3L350.5,17.3z M448.4,140c-11.2-8.6-17.4-28.4-18.6-58
		c-0.6,0.2-1.3,0.2-1.9,0.3V141c-3.1,3.2-9.6,3.8-12.8,3.8V116c-0.6,0.3-1.3,0.6-2.1,0.3c-7.1,10.9-18.1,20.5-31.9,27.4
		c8.3-11.7,18.3-27.6,22-40.2l12,8.8v-29c-5.1,0.5-10.1,0.8-15.2,0.9l12,8.8c0,2.1-1.1,3.4-2.9,2.9c-7.2,9.6-15.4,15.4-23.7,20.5
		c5.6-9.8,10.4-20.7,14-32.2c-2.9,0-5.8,0.2-8.8,0.2c17.3-5.3,33.4-11.2,47-20.2l10.9,15.2c-0.9,1.9-2.4,2.1-4.5,0.2
		c-4.3,0.8-8.6,1.6-13,2c2.3,8.3,5.3,15.6,8.8,21.7c2.6-6.4,5.1-13.3,6.9-20.7L458,96l-16.5,10c4.6,6.9,10.3,12,17.7,14.6L448.4,140
		z M388.5,14.8h43l-1.1,2.3h-8v34.2c1.9-0.3,3.7-0.8,5.7-1.3c-2,1.3-3.8,2.4-5.7,3.7v17.8c-1.9,0.6-8.2,0.2-10.6-3.7V60
		c-6.1,3.4-12.5,6.6-18.9,9.6c0,3.2-0.8,2.7-2.1,4.3l-4.5-17.4c2.1-0.2,4.3-0.3,6.6-0.6V17.1h-3.4L388.5,14.8z M403.1,28.3h8.6V17.2
		h-8.6V28.3z M403.1,42h8.6V30.8h-8.6V42z M411.8,53.3v-9.1h-8.6v10.3C405.9,54.3,408.9,53.8,411.8,53.3z M425.3,20.3h16.8
		c0.5-2.6,0.9-5.6,1.3-8.5l13.3,10.9c-0.5,2.1-1.4,5-3.4,5.1c-1.6,5.6-3.4,10.3-5.4,14.4c4,3.8,7.2,8.2,8.8,13.3l0.2-0.2
		c1.9,6.3-3.2,14.4-9.3,12.8c-1.9-5.3-4-10.3-6.4-15.1c-5.4,6.7-11.5,11.4-18.1,14.9c5.3-6.6,9.7-14.6,13.1-24
		c-3.2-5.4-6.8-10.4-10.6-15.4c4.2,1.7,9,3.8,13.5,6.7c1.1-4,2-8,2.7-12.5h-15.4L425.3,20.3z"/>
</g>
</svg>
