<?xml version="1.0" encoding="utf-8"?>
<!-- Generator: Adobe Illustrator 21.0.0, SVG Export Plug-In . SVG Version: 6.00 Build 0)  -->
<svg version="1.1" id="图层_1" xmlns="http://www.w3.org/2000/svg" xmlns:xlink="http://www.w3.org/1999/xlink" x="0px" y="0px"
	 viewBox="0 0 1015 150" style="enable-background:new 0 0 1015 150;" xml:space="preserve">
<style type="text/css">
	.st0{fill:#231F20;}
</style>
<title>我们的生活饮食态度</title>
<path class="st0" d="M0,53.8h24.1v-25c-7.7,0.7-15.5,1.1-23,1.1c10.4-4.4,21.2-6.2,39.1-19l13.1,12.6C48.1,25,42.8,26.1,37.5,27
	v26.8h21.9c-0.6-15-0.7-31-1.2-47.7l18.4,3.6c-0.7,3.9-1.8,4.8-4.5,5.6c-0.2,11.9-0.2,25.3,0.5,38.5h32.4l-1.5,2.6H72.7
	c0.6,11,2.1,22,4.4,32.8c4.5-8.7,8.3-17.8,11.3-27.2l15.4,12.8c-0.6,2.4-2.9,4-5.4,3.6c-4.4,9.3-10,18.1-16.6,26
	c1.3,3.2,2.9,6.2,4.8,9c3.6,5.4,6.5,8.3,8.7,1.4l6.7-21.8c0,20.9-1.2,31.8,4.7,34.5c-0.9,16.1-10.5,16.4-17.3,11.1
	c-7.7-6.3-13.9-14.3-18-23.3c-9.4,8.1-20.2,14.4-31.8,18.7c10.3-8.6,19.6-18.3,27.7-29c-4.7-14.1-6.6-30.5-7.5-48.5h-22V77
	c6.6-1.5,13.4-3.3,20-4.8c-6.5,4.8-13.1,9.8-20,14.4V117c0,19.4-4.2,22.7-18.7,24.4c-0.6-11.1-7.8-16.7-15.7-20.5l15.3,1.6
	c3.8,0.2,5.4-3.3,5.4-7.8V95.1c-4.6,2.6-9.3,4.9-14.1,6.9c-0.2,4.7-1.5,4.8-3.3,6L0.1,85c7.8-1.4,15.8-3,23.9-4.8V56.4H1.2L0,53.8z
	 M79.8,16c8.4-0.5,18.8,5.3,20.3,12c2.3,9.2-3.9,15.5-9.3,15.3C87.6,34.1,83.9,25,79.8,16z"/>
<path class="st0" d="M148.8,13.9c-0.4,2.6-2.4,4.6-5,5.1c-2.1,8.4-5.1,16.5-8.9,24.3l6.8,2c0.2,2.9-1.5,5.5-4.2,6.6l0.2,83.6
	c-3.6,4-8.8,6.1-14.2,5.7V63.9c-4.2,6.8-8.7,13.5-13.1,19.6c6.8-19.3,16.4-47.6,19.4-76.1L148.8,13.9z M148.1,32.2l17.3,2.3
	c-0.2,2.5-1.8,4.7-4.1,5.7v98.7c-3,2.7-9.3,3-13.2,2.6V32.2z M158.2,7.8c8.4,1.5,17.3,3.3,20.9,10.8c4.5,9.3-4.1,19.6-9.9,18.1
	C165.5,25.6,162.1,15.1,158.2,7.8L158.2,7.8z M183.7,25.6H200l13.7-6.3v106.6c0,13.4-8.4,14.4-20.2,15.7c0.6-9.8-9.8-15.2-19.4-18.4
	l21.6,1.5c2.9,0.2,4.4-2.9,4.4-5.3V27.9H185L183.7,25.6z"/>
<path class="st0" d="M272.4,132.3c-2.7,0.5-9.3-0.2-12.9-3.2v-9.4h-15.2l0.2,13.9c-3.5,3.2-8.3,4.6-12.9,3.6l0-106.5
	c4.3,0.4,8.5,2,12,4.5l0.3-29.6l19.6,4.7c-0.3,2.8-2.5,4.9-5.3,5.3c-3.4,7.5-7.7,14.6-12.8,21.1h14v-0.2l12.8-5.4L272.4,132.3z
	 M244.1,74.4h15.2V39.1h-15.2V74.4z M244.2,117.6h15.2l-0.2-40.8h-15.2L244.2,117.6z M303.2,121.6c4.1,0.5,7.1-0.9,7.4-10.1
	l2.1-74.5h-19.3c-4.8,12.7-11.7,24.5-20.5,34.9c7-21.2,11.1-43.3,12.2-65.6l20,5.9c-0.3,2.9-2.7,5.2-5.6,5.4
	c-1.4,5.7-3.2,11.3-5.3,16.9h19.3l13.5-5l-2.8,86.4c-0.3,19.6-10.8,23.9-22.9,25.5c-0.9-11.9-4.8-15.2-18.8-20.8L303.2,121.6z
	 M284,60c15.9,8.7,21.6,16.2,21.8,24.7c0.2,10.4-6.9,15.9-13.1,15.3C291.2,90.2,288,69.9,284,60z"/>
<path class="st0" d="M352.1,84.2h33.7v-37h-18.7c-5.7,13.9-14.4,30.5-24.8,42.1c7.3-23.9,12.4-48.4,15.5-73.1l20.3,9.2
	c-0.5,2.7-2.6,4.9-5.3,5.6c-1.3,4.7-2.8,9.3-4.7,13.7h17.7v-38l19.1,3.6c-0.4,2.7-2.3,5-4.9,5.7v28.6h38.3l-1.5,2.6h-36.7v37h33.7
	l-1.5,2.4h-32.2v46.2h40.3l-1.4,2.4h-97.8l-1.1-2.4h45.7V86.6h-32.6L352.1,84.2z"/>
<path class="st0" d="M463,75.2c-2.9-9.3-8.3-25-11.9-31.4c9.3,1.2,19.3,6.6,20.6,12.2C473.4,62.4,468.3,70.5,463,75.2z M454,92.6
	c3.6,1.5,6.8,3.8,9.5,6.6L487,30.8l-16.7,77.5c11,13.1,3.6,29.4-5.1,35.2C463.1,126.2,459.4,109.2,454,92.6L454,92.6z M470.7,42.5
	c-3.3-10.9-7.3-21.5-12-31.9c9.3,1.5,20.6,7.8,21.8,13.4C482.2,32.4,476.8,38.7,470.7,42.5z M483.5,54.3h25.9V28.1
	c-8.9,1-17.9,1.4-26.9,1.2c13.7-4.2,42.9-14.6,54.8-23.8l13.2,15.3c-9,2.4-18.2,4.2-27.5,5.4v28h32.5l-1.4,2.4h-31.1v28.7h7.8
	l13.9-5.4V140c-4.8,0.1-9.6-1.1-13.9-3.5v-7.7h-30.8v8.3c-4.2,2.4-8.9,3.7-13.7,3.6V80.6c4.9,0.3,9.7,1.9,13.7,4.8h9.2V56.6h-24.6
	L483.5,54.3z M500.2,126.5h30.7V87.6h-30.7V126.5z"/>
<path class="st0" d="M611.4,37.4L592,54.1l3-17.7h-10.7c-5,14.6-11.8,28.5-20.3,41.4c5.6-21.6,10.8-43.6,12.5-72.1l18.8,6
	c-0.6,2.5-2.4,4.4-4.8,5.1c-1.6,6-3.5,11.9-5.4,17.3h10.2l1.8-9.8L611.4,37.4z M573.1,118.8l5.3-2.4V53.6l16.6,3.9
	c-0.6,3-1.4,3.9-3.9,4.8v48l21-10.1l-27.5,33c0.3,2.2-0.5,4.4-2.1,6L573.1,118.8z M656.4,141.1c-8.4-14.9-15-32.1-17.3-68.9
	c-2.3,36.6-12.5,56.9-41.8,70.1c26.6-28.7,29.4-52.4,27.5-92.9l19.1,4.1c-0.7,3-1.5,4.5-4.2,5.1c0,2.4-0.2,4.7-0.2,6.9
	c2.1,10.4,8.9,39.4,31.6,55.4C665,125.7,660.3,132.6,656.4,141.1L656.4,141.1z M671.3,41.3c-0.1,2.4-2.2,4.3-4.6,4.1
	c-0.2,0-0.4,0-0.7-0.1c-5.7,6.6-13.2,12-19.3,17.8l5.1-23.5h-24.4c-5.5,16.1-14.4,30.9-25.9,43.5c8.1-21.2,16.1-42.7,17.7-77.2l20,6
	c-0.2,2.7-2.4,4.9-5.1,5.1c-1.8,7.4-3.6,14-5.7,20h24.1l2.6-11.4L671.3,41.3z"/>
<path class="st0" d="M692.4,124.4l5.1-1.2V56c-6.9,5.3-14.2,10.1-21.8,14.3c13.9-14.8,34.6-41.4,43.9-66.1l18.5,8.1
	c-1.1,3.5-2.7,4.1-5,3.9c16.7,15.7,37.3,25.5,49.4,27.8c-4.7,4.5-7.1,8-9.6,16.9c-5-2.2-9.8-5-14.1-8.4v41.2l3.5-4.1l11.1,14.9
	l-22,3.4c10.4,5,16.7,9.9,19.9,14.1c5.3,7.4,1.2,22.9-9.5,19c-6.3-9.5-13.5-18.3-21.6-26.3l-37,24.6c0.5,2.6-0.8,5.3-3.2,6.5
	L692.4,124.4z M726,50.5c-1.5-6.5-3-12.5-4.5-18.2c-4.6,5.7-9.5,11-14.9,15.9c1.5,0.6,3,1.4,4.4,2.3H726z M710.9,69.3h34.8V52.9
	h-34.8L710.9,69.3z M710.9,88.1h34.8V71.7h-34.8L710.9,88.1z M745.7,92.6v-2.1h-34.8V120l27.5-6.8c-5.5-5.5-11.3-10.6-17.5-15.3
	c9.2,2.2,18.2,5.2,26.9,8.9l9-10.5C752.8,96.2,748.9,95,745.7,92.6L745.7,92.6z M722.7,30.6c7.4,1.4,13.5,4.5,14,10.8
	c0.3,3.3-0.9,6.6-3.2,9h12.2v-0.2l7.5-2.4c-9.2-8.7-16.4-19.3-21.2-31C729.2,21.7,726.1,26.3,722.7,30.6L722.7,30.6z"/>
<path class="st0" d="M807.1,88.1c4.5,16.2,4.5,33-2.3,39.4c-6.9,6.8-13.9,0-15.7-9.6C797.1,109.3,803.2,99.2,807.1,88.1z
	 M852.7,10.7c-0.1,2.6-2.2,4.8-4.8,5c-0.7,4.8-1.6,9.3-2.6,13.4h48l-1.4,2.4h-41.7c10,16.8,26.4,28.7,45.5,33
	c-5.1,6-9.1,12.7-11.9,20c-12.6-7.7-27.8-20.8-34.9-53h-4.2c-1.8,7.1-4.2,13.9-7.4,20.5c7.4,2.6,16.7,6.9,17.1,15.3
	c0.3,8.9-7.4,11.6-10.7,12.8c-2.1-8.7-4.7-17.3-7.8-25.7c-10.2,18.4-25.5,25.9-46.2,34.2c11.1-10.4,32.4-25.9,40-57h-36.7l-0.9-2.4
	h38.1c1.6-7.7,2.5-15.6,2.4-23.5L852.7,10.7z M817.4,88.7l16.5,3.6c-0.1,2.2-1.8,4.1-4.1,4.4v23.1c0,5.1,2.6,5.4,4.7,5.4h18.2
	c7.7,0,12.2-17.9,14.1-26c0.3,9.5,0.7,22.1,7.1,26.8c-1.6,12.2-6.9,11.8-15.3,11.8h-27.7c-9.9,0-13.5-2.7-13.5-15.8L817.4,88.7z
	 M833.6,77.7c8.7,2.6,20.9,8,22.1,18.5c1.4,13.2-8.3,14.8-12.9,13.4C840.9,101.7,838.2,87.6,833.6,77.7L833.6,77.7z M870.3,87.6
	c12.2,4.8,23.2,12.9,24.4,22.6c1.4,11.4-5.7,15-11.3,15.7C881.3,117.4,875.9,98.9,870.3,87.6L870.3,87.6z"/>
<path class="st0" d="M973.1,70.5H954v4.1c-3.2,4.1-11.1,4.7-13.9,4.7V48.8h-12.8l-1.1-2.6v15.2c0,35.5-7.1,61.5-24.2,81.9
	c8.9-29.4,9.8-53,9.8-81.3V17.8c5.3-0.4,10.6,1.5,14.4,5.3h30.3c-1.4-5.7-3.3-11-5.3-19c8.9,0.5,16.6,2.9,17.5,9.2
	c0.7,4.1-1.6,7.2-3.9,9.8h43.2l-1.2,2.4h-80.4v20.8h13.9V30.3l18,3c-0.3,2.5-1.9,4.7-4.2,5.7v7.2h19.1V30.3l18,3
	c-0.3,2.5-1.9,4.6-4.2,5.4v7.5h20.5l-1.5,2.6h-19v25.5c-1.9,1.8-4.2,3.1-6.8,3.6L996.3,91c-0.5,3-2.6,4.4-5.9,4.1
	c-5.4,7.2-11.4,14-17.9,20.2c11.4,4.5,23.5,6.8,35.8,6.7c-4.3,5.3-7.5,11.4-9.3,17.9c-12.8-2.6-26.2-6.9-37.2-15.9
	c-12.9,9-28.4,15.3-49.5,19c14.9-7.2,28.8-16.3,41.4-27c-6.4-7.9-11-17.2-13.5-27.1h-9l-1.3-2.3h46.5c1.4-2.7,2.5-5.5,3.5-8.4
	c-2.2,0.7-4.5,0.9-6.8,0.6L973.1,70.5z M975.3,88.9h-33.5c4.6,8.1,11.1,15.1,19,20.2C966.5,103,971.4,96.2,975.3,88.9L975.3,88.9z
	 M954,68.1h19.1V48.8H954V68.1z"/>
</svg>
