<?xml version="1.0" encoding="utf-8"?>
<svg version="1.1" xmlns="http://www.w3.org/2000/svg" xmlns:xlink="http://www.w3.org/1999/xlink" x="0px" y="0px"
	 viewBox="0 0 230 150" xml:space="preserve">
<g>
	<path d="M5.1,92.6h43V80.1l18,3.9c-0.5,3.3-2.4,4.7-4.2,5.2v3.5h42.6l-1.6,2.5H66.5c6,8.3,24.5,18.5,44.3,20.6
		c-5.6,6.1-10.2,12.7-14,19.8c-5.5-2.4-25.1-10.7-32.8-40.4h-2v47.1c-3.1,2.8-11.3,3.9-13.8,3.5v-37.2
		C36.1,122.4,20.4,133.1,0,139.4c14.1-11.8,33-29.2,40.7-44.1H6.2L5.1,92.6z M1.8,20.9h27.7V4.1l16.9,3.6c-0.5,3-2.7,5-4.2,5.6v7.5
		h22.3V4.1l16.9,3.6c-0.3,3.1-2.7,5-4.5,5.6v7.5h32l-1.4,2.5H76.8v9.3c-3.3,3.6-9.7,3.8-12.4,3.8v-13H42.1v12.5
		c-3.5,3.6-9.9,3.8-12.7,3.8V23.4H2.8L1.8,20.9z M97.6,48.2c-28.8,3-73.5,5.8-91.4,3.9c9.3-1.6,63.2-12.4,79.2-20.8L97.6,48.2z
		 M17.2,58.7c9.4,2,17.4,5.2,19.1,12.5c2.2,9.7-6.4,14-10.7,14C23.3,76.8,20.2,67.2,17.2,58.7z M45.3,53.3
		c10.5,2.4,18.5,6.3,18.3,14.1c-0.3,8.6-7.2,12.2-11,13C50.6,71.9,48.1,61.9,45.3,53.3z M96.2,65.2c-1.1,3-3.3,3.1-5.5,2.5
		C84,75.5,76.7,82,69.3,87c3.8-9.3,8.9-24.8,10.4-34.4L96.2,65.2z"/>
	<path d="M117.8,59.4h12.5l11.1-5.3l0.2,57.1l14.6-9.7l-18,33.3c0,2.4-0.6,4.5-2,5.8l-10.5-19l3.8-2.5V61.6h-11.1L117.8,59.4z
		 M124.6,6.1c6.1,0.5,19.9,5.2,21.7,16.2c2,11.4-8,15.8-13.2,14C131.3,28.2,127.1,12.8,124.6,6.1z M151.1,26.7h20.4
		c-1.7-7.2-4.1-15.7-6-21.5c8,0.5,17.4,4.4,17.4,12.1c0,4.7-2.2,7.8-5,9.6h17.6l2.7-21.5l16.8,7.2c-0.9,2.4-3.3,3.3-5.6,3
		l-10.8,11.2h27.3l-1.3,2.4h-23.7v41.9h24.5l-1.4,2.4h-74.6l-1.3-2.4h22.2V29h-18L151.1,26.7z M157.6,66.7
		c-1.4-8.3-3.5-21.9-5.6-29.7c12.2,5,16.5,10.7,16,19.4C167.6,62.5,162.1,66.1,157.6,66.7z M215.7,144c-2.8,0.5-9.6,0.2-13.3-3.6
		v-3.1h-30.8v4.5c-4.5,3-8.3,3.5-12.9,3.3V82.7c5.5,0.6,8.6,2,12.5,4.5h31.6l12.9-4.2V144L215.7,144z M171.7,109.6h30.8V89.7h-30.8
		V109.6z M171.7,134.8h30.8v-22.7h-30.8V134.8z M181.8,71.1h7.2V29h-7.2V71.1z M224.8,45.5c-0.8,2.2-3.5,3-5.6,2.2l-15.8,20.9
		l6.3-32.5L224.8,45.5z"/>
</g>
</svg>
