<?xml version="1.0" encoding="utf-8"?>
<!-- Generator: Adobe Illustrator 21.0.0, SVG Export Plug-In . SVG Version: 6.00 Build 0)  -->
<svg version="1.1" id="图层_1" xmlns="http://www.w3.org/2000/svg" xmlns:xlink="http://www.w3.org/1999/xlink" x="0px" y="0px"
	 viewBox="0 0 225 150" style="enable-background:new 0 0 225 150;" xml:space="preserve">
<g>
	<path d="M0,56.7h55.8l-1.3,2.7H33.2c-5.1,12.9-15.6,29.2-23,40.1l26.3-2.3c-1.7-8-3.8-15.8-6-21c21.3,13.1,30.9,31.4,10.4,41.7
		c-0.9-4.2-2.2-10.4-3.6-16.8L11.2,118c0.6,3.4-0.3,5.1-3.6,6.7l-7.3-24.3l4.9-0.5c4.4-13.4,8.2-26.7,11.4-40.6H1.1L0,56.7z
		 M5.8,24.6h44.5l-1.4,2.3H6.8L5.8,24.6z M78.5,125.8c4,0,5.4-6,5.4-9.6c1.6-22.4,2.9-46.8,3.4-70.1H77.1
		c-2.9,65.9-15.7,76.5-46.6,99.8c19.8-22.1,30.1-51.6,32-99.8h-9.7l-1.3-2.5h11.1c0.3-11.8,0.3-24.9-0.3-39.2l20.7,4
		c-0.3,3.8-3.1,5.6-5.1,6c-0.2,10.7-0.3,20.3-0.6,29.1h10.1v-0.2l15.1-3.8c-0.6,25.6-1.4,51.6-2.9,77.3
		c-1.1,18.9-8.7,25.2-22.5,26.5c-0.3-6.9-1.8-12.9-14.9-18.3L78.5,125.8z"/>
	<path d="M133.1,89.3c4.7,16.8,4.7,34.1-2.3,40.7c-7.1,7-14.3,0-16.2-10C121.8,112.2,129.1,101.5,133.1,89.3z M180.2,9.4
		c-0.5,3.4-2.3,4.7-4.9,5.1c-0.7,4.9-1.7,9.6-2.7,13.8h49.6l-1.4,2.5h-43c6.7,11.8,22.7,28.9,47,34.1c-4.4,5.4-8.5,11.1-12.3,20.7
		c-13.1-8-28.7-21.4-36.1-54.7H172c-2.2,8.2-4.7,15.2-7.6,21.1c7.6,2.7,17.3,7.1,17.8,15.8c0.3,9.2-7.6,12-11.1,13.2
		c-1.7-6.4-4.4-17.6-8.1-26.5c-10.5,18.9-26.5,26.7-47.7,35.3c11.5-10.7,33.4-26.7,41.4-59h-37.9l-0.9-2.5h39.4
		c1.6-7.1,2.5-15.2,2.5-24.3L180.2,9.4z M143.6,89.9l17.1,3.8c-0.3,2.8-2,4-4.2,4.5V122c0,5.3,2.7,5.6,4.9,5.6h18.8
		c8,0,12.6-18.5,14.6-26.9c0.3,9.8,0.7,22.9,7.3,27.6c-1.7,12.6-7.1,12.1-15.8,12.1h-28.6c-10.3,0-14-2.8-14-16.3L143.6,89.9
		L143.6,89.9z M160.5,78.6c9.1,2.7,21.6,8.2,22.9,19.1c1.4,13.6-8.5,15.2-13.4,13.8C168.1,103.3,165.2,88.8,160.5,78.6z M198.4,88.8
		c12.6,4.9,24,13.4,25.2,23.3c1.4,11.8-6,15.6-11.6,16.2C209.7,119.6,204.1,100.5,198.4,88.8z"/>
</g>
</svg>
