<?xml version="1.0" encoding="utf-8"?>
<svg version="1.1" xmlns="http://www.w3.org/2000/svg" xmlns:xlink="http://www.w3.org/1999/xlink" x="0px" y="0px"
	 viewBox="0 0 460 145" xml:space="preserve">
<g>
	<path d="M9.6,18.4c5.2,0.4,10.6,2.6,13.7,5.5v0.3c6.7-6.3,13-14.5,18.4-22.7L55,17.4c-6.1,2.7-21.1,8.1-31.7,10.2v18.5h13.5
		l13.5-4.5v52.1c-2.6,0.8-10.1-0.3-13.5-3.1V82H22.7C20.6,110,13,125.8,0,141.3c5.9-17.9,9.6-42.2,9.6-64.1V18.4z M22.8,79.5h14.1
		V48.6H23.4v13.9C23.4,68.7,23.1,74.2,22.8,79.5z M58.3,16.4c5.9,0.6,10.4,2.9,13.7,5.8v1.4c5.3-2.9,12.2-7.2,20.8-18.4l15.9,12.7
		c-8,3.8-23.9,7-36.7,8.7v28.3h36.5l-1.4,2.4H96.7v79.4c-4.5,3.2-9.2,3.8-13.6,3.7v-83H72.1c-0.4,42.9-12.7,66.8-38.2,83.8
		C49.4,118,58.3,93.8,58.3,59.6L58.3,16.4L58.3,16.4z"/>
	<path d="M192.1,51.7v-0.2l14.5-4.5l0.3,71.5c0,13.6-5.5,20-19.6,23.1c-2.9-11.8-4.5-13.9-17.1-18.2l17.9,0.8
		c3.3,0.2,3.9-3.3,3.9-7.3V98.4h-36.6v38.8c-2.9,2.7-11,3.7-14.5,3.7V68.7c-7,8.6-15.1,16.2-24.9,23.1c8.1-11.6,17.3-27.1,24.9-44.8
		v-0.6l0.2,0.2c2.4-5.8,4.7-11.8,6.7-18h-29.4l-1-2.3h31.3c2.4-8,4.5-16.2,5.8-24.7l20.2,8c-1.2,4.3-2.9,4.7-5.8,5.2
		c-1.4,3.9-2.6,7.8-4.1,11.5h59.1l-1.4,2.3h-58.6c-3.1,7.8-6.4,15-10.4,21.9c0.8,0.4,1.4,1,2,1.4L192.1,51.7L192.1,51.7z
		 M155.5,73.5h36.6V53.8h-36.6V73.5z M155.5,96h36.6V76h-36.6V96z"/>
	<path d="M324.1,39.5c-1.4,3.9-3.3,4.9-6.4,3.5c-5.1,9.6-11.9,19-19.4,24.8h40.2l-1.4,2.3h-77c0.3,12.5-0.2,20.2-0.8,27.1
		c-0.6,7-2,13.5-4.1,18.8c-4.1,10.7-12.9,18.4-24.5,27.4c7.5-13.1,12.2-24.8,13.7-37.2c0.9-6.3,1.4-12.7,1.4-19.4V62.1
		c4.5,0.6,10.6,2.6,14.1,5.7h33.8l10.8-38.4L324.1,39.5z M289.5,24.6h48l-0.9,2.6h-97.6l-0.8-2.6h46.2c-2-6.4-4.5-13.7-8.2-22.2
		c9.4,0.2,15.1,0.6,19.2,7.3C297.9,14.5,295,21.1,289.5,24.6z M258.2,29.7c14.3,4.5,23.7,13,24.3,21.3c0.6,9.6-7.2,13.6-11.8,16.1
		C268,58.3,262.8,41.3,258.2,29.7z"/>
	<path d="M395.5,138.2c-2.4,1-10.1,1.5-13.5-3.1v-6.4h-16.4v8.4c-4.1,3.8-8.8,3.3-13.3,3.2V72c5.5,0.6,9.6,2.7,13.3,6.3h16.4
		l13.5-5.9V138.2z M365.7,125.5h16.4V81.6h-16.4V125.5z M431.9,66.2c-2.3,0.8-11.2,0.2-14.3-4.3V55h-35.2v7.6
		c-3.9,3.5-10.2,4.1-14.3,3.9V7.9c5.1,0.6,10.8,2.4,14.3,5.5h35.5L432,7.5L431.9,66.2L431.9,66.2z M382.4,52.4h35.2V16.2h-35.2V52.4
		z M447.8,139c-2.7,0.8-9.4,1.5-13.1-3.3v-7.2h-17.6v8.2c-4.3,3.7-8.7,3.3-13.1,3.2V72.1c5.3,0.8,9.4,2.7,13.1,6.3h17.6l13.1-6.1
		V139z M417.1,125.1h17.6V81.5h-17.6V125.1z"/>
</g>
</svg>
