<?xml version="1.0" encoding="utf-8"?>
<!-- Generator: Adobe Illustrator 21.0.0, SVG Export Plug-In . SVG Version: 6.00 Build 0)  -->
<svg version="1.1" id="图层_1" xmlns="http://www.w3.org/2000/svg" xmlns:xlink="http://www.w3.org/1999/xlink" x="0px" y="0px"
	 viewBox="0 0 450 150" style="enable-background:new 0 0 450 150;" xml:space="preserve">
<g>
	<path d="M40.2,107.1c-1.3,2.4-3.3,4.3-6.3,4.3C26.3,122.5,14.3,131.6,0,140c8.5-11.9,19.3-26.2,23.2-42.6L40.2,107.1z M13.6,48.3
		l9.8-0.2c5.2-5.6,10.9-13.2,14.9-21.1C27,27.8,15.9,28.1,6.6,27.8C22.3,24.3,59.8,13.9,77,4.1l14.8,16.1C81,22.5,66.2,24.5,51,26
		l8.5,3.8c-0.9,2.3-5.4,3.9-7.3,3.5c-6.5,4.8-14.6,10.2-24.7,14.8l31.9-0.6c5.8-6.1,10.6-12.2,13.2-17.6l14.6,15.2
		c-1.5,2.6-3,2.8-6.9,2.8c-7.8,7.3-27.7,21.5-48.2,31l48-0.8c-2.9-6.1-6.3-12-9.9-16.9c17.2,6.7,26.2,11.5,28.7,22.1
		c2,8.2-4.1,14-10.2,16.7c-1.7-4.8-3.9-11.5-7-18.1l-21,4.1v41.1c0,7.4-3,14.3-19.1,16c-0.6-8.7-2.6-14.5-16.9-17.5l17,0.8
		c4.1,0.2,5-3.3,5-6.7V88.8l-31.3,6.3c-0.4,2.3-0.9,4.4-3,5.5L8.1,79.4L23,79.2c8.9-6.9,20.7-16.3,30.9-26l-33.5,9.8
		c-0.3,2.1-0.9,4.6-2.9,5.4L13.6,48.3z M65.1,97.8c17.5,5.5,33.2,12.2,34.5,22.8c0.9,7.3-5.4,13.9-10,17.6
		C85.3,128.1,74.7,108.9,65.1,97.8z"/>
	<path d="M113.7,21.5h58.7l-1.5,2.9h-26.2l1.7,0.2c-1.5,8.4-3.5,16.7-6.1,24.8H155c0.6-3.7,1.3-7.3,1.7-11.3l16,13.1
		c-0.4,3.7-2.9,5.5-5.4,5.9c-7.4,44.3-21.1,68-54.5,85.3c12.8-15.5,22.4-29.8,29.5-46.3c-1.7,1.3-3.5,2.1-5.2,2.1L131,71.6
		c-5.2,9.9-11.5,18.9-19.3,26.3c7.4-16,17.2-48.7,20-73.4h-16.9L113.7,21.5z M132,69.7c7.8,1.8,12.8,9.8,14.1,15.4
		c0,0.3,0,0.6,0.2,0.7c3.5-10,6.1-21,8.2-33.6h-15.4C137.2,58.2,135,64.1,132,69.7z M175.9,19.8l17.4,3.8c0.4,2.1-0.9,5-4.1,5v77.6
		c-3.7,3.5-10.2,4.4-13.2,4.4L175.9,19.8L175.9,19.8z M192.2,125.1c3.8,0.4,7.4-2.8,7.4-7.3V8.7l18.5,3.5c0.6,2.9-1.7,5.6-4.8,5.6
		l0.4,102c0,19.1-7.3,22.4-21,23.2c-0.9-5.8,1.5-12.3-16.7-18.4L192.2,125.1z"/>
	<path d="M318,42.6c-1.3,3.9-3.3,4.8-6.4,3.5c-5,9.6-11.9,18.9-19.3,24.7h40l-1.3,2.3h-76.5c0.3,12.4-0.2,20.1-0.8,26.9
		c-0.6,7-2,13.4-4.1,18.7c-4.1,10.6-12.8,18.3-24.3,27.2c7.4-13.1,12.2-24.7,13.7-36.9c0.9-6.3,1.3-12.6,1.3-19.3V65.1
		c4.6,0.6,10.5,2.6,14,5.6h33.6l10.8-38.2L318,42.6z M283.6,27.6h47.8l-0.9,2.6h-97.1l-0.7-2.6h46c-2-6.4-4.6-13.7-8.2-22.1
		c9.4,0.2,15,0.6,19.1,7.3C292,17.6,289.1,24.1,283.6,27.6z M252.5,32.8c14.1,4.4,23.6,13,24.2,21.1c0.6,9.6-7.2,13.5-11.7,16
		C262.2,61.3,257,44.3,252.5,32.8z"/>
	<path d="M389.1,140.7c-2.4,1.1-10,1.5-13.4-3v-6.4h-16.3v8.4c-4.1,3.8-8.9,3.3-13.2,3.2V75c5.5,0.6,9.6,2.8,13.2,6.3h16.3l13.4-5.9
		V140.7z M359.4,128.1h16.3V84.4h-16.3V128.1z M425.3,69.1c-2.3,0.8-11.1,0.2-14.3-4.3v-6.9h-35v7.6c-3.9,3.5-10.2,4.1-14.3,3.9
		V11.2c5,0.6,10.8,2.4,14.3,5.5h35.3l14-5.9V69.1z M376,55.4h35V19.3h-35V55.4z M441.1,141.4c-2.8,0.7-9.4,1.5-13.1-3.3V131h-17.5
		v8.2c-4.3,3.7-8.7,3.3-13.1,3.2V74.9c5.4,0.8,9.4,2.8,13.1,6.3h17.5l13.1-6.1V141.4z M410.5,127.6h17.5V84.3h-17.5V127.6z"/>
</g>
</svg>
