<?xml version="1.0" encoding="utf-8"?>
<!-- Generator: Adobe Illustrator 21.0.0, SVG Export Plug-In . SVG Version: 6.00 Build 0)  -->
<svg version="1.1" baseProfile="tiny" id="圖層_1"
	 xmlns="http://www.w3.org/2000/svg" xmlns:xlink="http://www.w3.org/1999/xlink" x="0px" y="0px" viewBox="0 0 467 158"
	 xml:space="preserve">
<g>
	<path d="M8.3,41.5h46.3C51,30,46.9,19.4,42.6,9.3c10.9,0.8,21.7,5.6,25.1,12.2c5.5,10.4-2,17.8-9.3,20.1h52l-1.6,2.5H67v41.6h35.8
		l-1.4,2.5H67v50.3h45.5l-1.2,2.6H5.8l-1.1-2.6h46.7V88.1h-34l-0.9-2.5h34.9V44H9.5L8.3,41.5z"/>
	<path d="M121.2,72.4h55.3l-1.2,2.5h-16.8v21.7h17.8L175,99h-16.5v26.3c1.2,0.5,2.6,0.6,4.2,0.8c24,3.1,60.3,1.7,68.6,0.6
		c-3.9,5.5-6.9,10.6-9.2,19.3c-7.9-0.5-35.8,1.1-55.6-3c-14.6-3.1-23.8-12.8-29-32.1c-2.3,13.4-7.5,28.4-17.6,38.8
		c4.8-22,7.9-42.5,6.9-66.1l17,5.5c-0.5,2.8-1.7,4.7-4.4,5.1c-0.2,3.9-0.6,8.4-1.2,13.1c2.2,3.7,4.7,7.3,7.8,10.4v-43h-23.5
		L121.2,72.4z M168.3,64.9c-2.6,0.3-8.4,0-11.8-3.7v-3H141v3.6c-3.9,2.6-7.9,3.3-11.8,3.1V11.8c4.8,0.6,8.4,2.3,11.8,4.8h15.4
		l11.8-4.5V64.9z M141,35.8h15.4V18.9H141V35.8z M141,55.9h15.4V38.1H141V55.9z M202.1,94.5c-4.4,13.7-13.7,24.3-34.1,29.6
		c27-19.3,26.5-45.8,25.7-73.5l15.9,3c-0.5,2.6-2.2,3.7-3.7,4.5c-0.2,12.2-0.3,23.5-3,33.5c8.1,1.7,20.4,4.7,23.5,14.8
		c2.3,8.1-4.1,13.6-9.8,13.9C212.2,111,207.6,102.1,202.1,94.5z M172.5,16h57.8l-1.4,2.3h-21.3l-12.2,19.9h16.2l12-3.9v58.3
		c-1.9,0-8.3-0.2-12-3.4V40.4H189v50.6c-2.3,3.1-7.5,4.8-11.1,4.7V34.4c3.1,0,7.8,1.4,11.1,3.9h3.9l0.2-19.9h-19.5L172.5,16z"/>
	<path d="M242.3,96.2h42.8V83.8l17.9,3.9c-0.5,3.3-2.3,4.7-4.2,5.1v3.4h42.4l-1.6,2.5h-36.3c5.9,8.3,24.5,18.4,44.1,20.6
		c-5.6,6.1-10.1,12.6-13.9,19.6c-5.5-2.3-25.1-10.6-32.7-40.2h-2v46.9c-3.1,2.8-11.2,3.9-13.7,3.4V112c-12,13.7-27.7,24.5-48,30.7
		c14-11.7,32.9-29.1,40.5-43.9h-34.3L242.3,96.2z M239,24.9h27.6V8.2l16.8,3.6c-0.5,3-2.6,5-4.2,5.6v7.5h22.3V8.2l16.8,3.6
		c-0.3,3.1-2.6,5-4.5,5.6v7.5h31.9l-1.4,2.5h-30.5v9.2c-3.3,3.6-9.7,3.7-12.3,3.7V27.3h-22.3v12.5c-3.4,3.6-9.8,3.7-12.6,3.7V27.3
		h-26.5L239,24.9z M334.5,52c-28.7,3-73.2,5.8-91,3.9c9.2-1.6,62.9-12.3,78.8-20.7L334.5,52z M254.5,62.6c9.3,2,17.3,5.1,19,12.5
		c2.2,9.7-6.4,13.9-10.6,13.9C260.5,80.5,257.4,71,254.5,62.6z M282.3,57.1c10.4,2.3,18.4,6.2,18.2,14c-0.3,8.6-7.2,12.2-10.9,12.9
		C287.6,75.6,285.1,65.7,282.3,57.1z M333.1,68.9c-1.1,3-3.3,3.1-5.5,2.5c-6.7,7.8-13.9,14.2-21.3,19.2c3.7-9.2,8.9-24.8,10.3-34.3
		L333.1,68.9z"/>
	<path d="M354.6,63.2h12.5l11.1-5.3l0.2,56.9l14.5-9.7l-17.9,33.2c0,2.3-0.6,4.5-2,5.8l-10.4-18.9l3.7-2.5V65.5h-11.1L354.6,63.2z
		 M361.3,10.1c6.1,0.5,19.8,5.1,21.7,16c2,11.4-7.9,15.7-13.1,13.9C368,32.2,363.8,16.8,361.3,10.1z M387.8,30.6h20.3
		c-1.7-7.2-4.1-15.6-5.9-21.5c7.9,0.5,17.3,4.4,17.3,12c0,4.7-2.2,7.8-5,9.5h17.5l2.6-21.5l16.7,7.2c-0.9,2.3-3.3,3.3-5.6,3
		L435,30.6h27.3l-1.2,2.3h-23.7v41.9h24.5l-1.4,2.3h-74.3l-1.2-2.3H407V33h-17.9L387.8,30.6z M394.2,70.5
		c-1.4-8.3-3.4-21.8-5.6-29.6c12.2,5,16.4,10.6,15.9,19.3C404.2,66.3,398.7,69.9,394.2,70.5z M452.2,147.5
		c-2.8,0.5-9.5,0.2-13.2-3.6v-3.1h-30.7v4.5c-4.5,3-8.3,3.4-12.8,3.3V86.4c5.5,0.6,8.6,2,12.5,4.5h31.5l12.8-4.2V147.5z
		 M408.2,113.2h30.7V93.4h-30.7V113.2z M408.2,138.3h30.7v-22.6h-30.7V138.3z M418.5,74.9h7.2V33h-7.2V74.9z M461.2,49.3
		c-0.8,2.2-3.4,3-5.6,2.2l-15.7,20.9l6.2-32.4L461.2,49.3z"/>
</g>
</svg>
