<?xml version="1.0" encoding="utf-8"?>
<!-- Generator: Adobe Illustrator 21.0.0, SVG Export Plug-In . SVG Version: 6.00 Build 0)  -->
<svg version="1.1" id="圖層_1" xmlns="http://www.w3.org/2000/svg" xmlns:xlink="http://www.w3.org/1999/xlink" x="0px" y="0px"
	 viewBox="0 0 345 150" style="enable-background:new 0 0 345 150;" xml:space="preserve">
<g>
	<path d="M42.1,49.1c-0.6,3.1-2.6,4.9-5.9,5.2c-8.5,35.1-21.7,53.2-35.7,68.9c9.4-26.5,17.1-53.6,20.6-83.4L42.1,49.1z M43.9,122.6
		c4.2,0.2,5.1-3.2,5.1-7.4V6.7l21,3.7c-0.5,2.8-2.3,4.9-4.9,6V119c0,17.7-5.7,23.7-22.3,25c-0.5-14-10.9-18-22.8-22.3L43.9,122.6z
		 M108.6,94.9c1.8,16.5-6,22-14.8,20.8c-5.1-31.4-9.1-50.1-20.3-76.3C92.6,56.4,106.5,75.5,108.6,94.9z"/>
	<path d="M144.5,104.6c-3.7,19.9-11.6,29.4-27.6,39.6c12.5-18.3,18.8-31.1,19.6-62.7c0.2-11.6,0.5-31.4,0-49l13.4,3.4
		c-0.3,2.2-1.4,3.4-2.9,3.9c0.6,29.9,0.2,49.9-2.5,64.6c9.9,5.4,19.9,12.2,19.6,22.3c-0.3,7.1-5.5,10.6-10.3,9.7
		C152.2,125.4,148.5,115.4,144.5,104.6z M164.1,104.4c-3.2-0.2-8.8-0.9-11.9-3.2V20.9h-20.8v82c-3.2,2.5-8.8,3.1-12,3.1V14.8
		c3.7,0.3,9.2,2.3,12,3.7h21.3l11.4-3.4V104.4z M219.4,144.2c-3.9-0.5-9.2-0.9-12.9-3.7v-9.9h-24v9.7c-3.9,2.9-9.7,3.5-13.7,3.7V75
		c5.1,0.6,10.5,2.6,13.7,4.9h3.1V5.8l17.1,3.5c-0.5,3.1-2.3,5.1-3.7,5.7v25.4h25.9l-1.4,2.5H199v37h7.5l12.9-5.5L219.4,144.2
		L219.4,144.2z M182.4,128.3h24V82.4h-24V128.3z"/>
	<path d="M233.1,57.9h44.4V6.6l20.8,3.7c-0.5,4-2.6,5.2-5.1,6.3v41.3h46.5l-1.5,2.6h-45v74.1h41.3l-1.2,2.6h-93.5l-1.1-2.6h38.8
		V60.5h-43.3L233.1,57.9z"/>
</g>
</svg>
