<?xml version="1.0" encoding="utf-8"?>
<!-- Generator: Adobe Illustrator 21.0.0, SVG Export Plug-In . SVG Version: 6.00 Build 0)  -->
<svg version="1.1" id="图层_1" xmlns="http://www.w3.org/2000/svg" xmlns:xlink="http://www.w3.org/1999/xlink" x="0px" y="0px"
	 viewBox="0 0 450 150" style="enable-background:new 0 0 450 150;" xml:space="preserve">
<g>
	<path d="M91.9,42.6c-1.4,4-3.4,4.9-6.4,3.5c-5,9.5-11.9,18.8-19.3,24.6h40l-1.4,2.3H28.4c0.3,12.4-0.2,20-0.8,26.9
		c-0.6,7-1.9,13.4-4.1,18.7c-4.1,10.7-12.8,18.3-24.4,27.2c7.4-13.1,12.2-24.6,13.7-37c0.9-6.3,1.4-12.6,1.4-19.3V65.1
		c4.6,0.6,10.5,2.6,14,5.7h33.6l10.8-38.1L91.9,42.6z M57.6,27.7h47.8l-0.9,2.6H7.4l-0.8-2.6h45.9c-1.9-6.4-4.6-13.7-8.2-22.1
		c9.4,0.2,15.1,0.6,19.2,7.3C65.9,17.6,63.1,24.2,57.6,27.7z M26.3,32.9C40.5,37.3,49.9,45.8,50.5,54c0.6,9.6-7.2,13.5-11.7,16
		C36.1,61.3,30.9,44.3,26.3,32.9z"/>
	<path d="M163,140.7c-2.5,1.1-10.1,1.5-13.4-3v-6.4h-16.2v8.4c-4.1,3.8-8.8,3.4-13.2,3.2v-68c5.5,0.6,9.6,2.7,13.2,6.3h16.2
		l13.4-5.9L163,140.7L163,140.7z M133.4,128.1h16.2V84.4h-16.2V128.1z M199.2,69.1c-2.3,0.8-11.1,0.2-14.3-4.2V58h-35v7.6
		c-4,3.5-10.2,4.1-14.3,4V11.3c5,0.6,10.8,2.5,14.3,5.5h35.3l14-5.9L199.2,69.1L199.2,69.1z M149.9,55.4h35v-36h-35L149.9,55.4
		L149.9,55.4z M215,141.5c-2.7,0.8-9.4,1.5-13.1-3.4V131h-17.5v8.2c-4.2,3.6-8.7,3.4-13.1,3.2V74.8c5.3,0.8,9.4,2.7,13.1,6.3H202
		L215,75V141.5z M184.5,127.6H202V84.3h-17.5V127.6z"/>
	<path d="M243.2,31.9l8.8,0.2c8.2-8.5,16.9-20.2,20.2-28l18.9,11.2c-11.2,7.3-22.8,12.6-33,16.8l44.2,0.3c-3.2-4.4-6.5-8.7-9.7-12.9
		c8.7,2.5,22.7,2.7,28.6,14.1c3.5,6.9-3,16.9-7.6,17c-2.7-5.5-5.7-10.7-9.3-15.5c-10.1,3.4-21.1,5.9-32,7.9l15.2,5.3
		c-0.3,2.9-1.7,4.4-5.7,4.2c-0.4,1.3-1.1,2.7-1.7,4.2H335l-1.4,2.1h-42c14,12,28.3,19.6,43.4,20c-3.6,5-7.3,10.2-11.3,19.3
		c-12.2-4.6-26.9-20.4-33.2-39.4H279c-7.6,14.5-27.5,37-52.8,47.3c13.1-12.2,27.8-30.5,36.2-47.3h-32.8l-0.9-2.1h35
		c2.1-4.6,3.8-9,4.7-13.1c-5.9,1.1-11.7,1.9-17.3,2.7c0,1.9-0.9,4.1-2.9,5.2L243.2,31.9z M323.6,115.6c-0.9,2.3-2.9,2.9-5.7,1.7
		c-17.3,13.7-41.2,28.2-83.1,28.4c16.2-5.3,59.1-21.5,73.6-44L323.6,115.6z M308.4,97.3c-1.2,2.3-3,2.1-4.9,1.5
		c-14.3,12.9-40.6,25.4-65.7,29.4c9.4-4.1,42.1-22.5,56.6-44.1L308.4,97.3z M296.3,79c-1.4,1.9-3.2,1.9-5,1.4
		c-10.8,10.7-29.2,21.9-52.2,28c7.9-5.3,33.5-23.3,43.1-41.5L296.3,79z"/>
	<path d="M377.5,46.8v20c-2.5,2.6-6.4,3.8-9.4,4.1l8.4,2.7c-0.3,1.9-1.9,3.6-4,4.1c-1.1,2.9-2.1,5.7-3.2,8.5h11.4
		c0.8-3,1.4-6.1,1.9-9.4l13.9,10.3c-0.4,3.2-1.9,4.9-4.2,5.5c-1.9,6.7-4.2,12.4-7,17.3c4.7,1.7,7.3,4.1,8.7,7.9
		c3.4,9.3-4,15.1-7,17.2c-2.6-3-5.7-7.8-10.5-12.8c-11.8,12.8-26.5,17.3-35.9,22.1c9.1-8,19.3-17,27.7-29.5
		c-4.9-3.8-10.9-7.3-18.5-10.2c2.1-4.7,4.2-10.3,6.1-16.2h-11.6l-1.1-2.3h13.4c1.9-6.1,3.5-12.2,4.7-17.7l4,1.3V52.7
		c-6.9,9.1-15.2,16.6-23.8,21.3c5.5-8.6,13.7-21.6,17.7-34.1h-14.9l-1.1-2.6h22.1V5.6l16,3c-0.4,2.9-1.9,4.2-3.6,5v23.8h4.2
		l4.9-25.1l12.4,7.4c-0.9,2.1-1.9,2.5-3.4,2.5c-3.2,7.4-8.5,10.7-13.4,15.2h17.3l-1.4,2.6h-20.7v5.2c10.2,1.7,16.4,4.1,17.9,9.7
		c2.1,8-4.6,13.2-7.8,14.7C385.9,62.6,381.6,53.1,377.5,46.8z M347.8,11.4c7.4,3,13.7,6.5,14.1,13.4c0.4,8-5.9,11.1-9,12.2
		C352,28.1,350.1,19.6,347.8,11.4z M372.8,107.2c3-5.5,5.5-11.6,7.3-18.5h-11.7c-2.1,5.7-4.4,11.2-6.9,17.2
		C365.7,106.3,369.6,106.8,372.8,107.2z M439.3,142.4c-5.3-4.2-14-11.6-21.6-25.4c-10.5,13.9-23.1,20.9-34.5,26.2
		c12.4-11.7,21.7-24.5,28.8-39.3c-4-10.7-7-24.2-8-41.2c-3.5,6.1-6.9,11.4-9.9,16.2c3.6-12,12-42.6,12.9-71.3l19.8,6.4
		c-0.6,2.7-2.6,4.4-4.9,4.4c-1.9,8.4-4.6,16.4-7.8,24h34.9l-1.4,2.5h-7c-2.3,26.8-7.8,45.9-15.1,60c6.9,9.1,15.2,16.2,25.5,20.4
		C447,130.1,443.2,133.7,439.3,142.4z M405.2,60.4c3.2,11.4,7,21.9,11.8,31c4.9-13.7,7.8-29,9-46.7H413
		C410.5,50.2,407.9,55.5,405.2,60.4z"/>
</g>
</svg>
