<?xml version="1.0" encoding="utf-8"?>
<!-- Generator: Adobe Illustrator 21.0.0, SVG Export Plug-In . SVG Version: 6.00 Build 0)  -->
<svg version="1.1" id="图层_1" xmlns="http://www.w3.org/2000/svg" xmlns:xlink="http://www.w3.org/1999/xlink" x="0px" y="0px"
	 viewBox="0 0 225 150" style="enable-background:new 0 0 225 150;" xml:space="preserve">
<g>
	<path d="M93.8,41.5c-1.4,4-3.4,4.9-6.5,3.5c-5.1,9.7-12,19.1-19.5,24.9h40.4l-1.4,2.3H29.5c0.3,12.6-0.2,20.3-0.8,27.2
		c-0.6,7.1-2,13.5-4.1,18.9c-4.2,10.8-13,18.4-24.6,27.5c7.5-13.2,12.3-24.9,13.8-37.4c0.9-6.3,1.4-12.8,1.4-19.5V64.3
		c4.6,0.6,10.6,2.6,14.1,5.7h34l10.9-38.6L93.8,41.5z M59.1,26.4h48.3l-0.9,2.6H8.3l-0.8-2.6H54c-2-6.5-4.6-13.8-8.3-22.3
		c9.5,0.2,15.2,0.6,19.4,7.4C67.5,16.2,64.6,22.8,59.1,26.4z M27.5,31.6C41.8,36.1,51.3,44.7,52,53c0.6,9.7-7.2,13.7-11.8,16.1
		C37.4,60.4,32.2,43.2,27.5,31.6z"/>
	<path d="M165.7,140.7c-2.5,1.1-10.1,1.5-13.5-3.1v-6.5h-16.4v8.5c-4.1,3.8-8.9,3.4-13.4,3.2V74.1c5.5,0.6,9.7,2.8,13.4,6.3h16.4
		l13.5-6V140.7z M135.7,127.9h16.4V83.8h-16.4V127.9z M202.3,68.2c-2.3,0.8-11.2,0.2-14.4-4.3V57h-35.4v7.7c-4,3.5-10.3,4.1-14.4,4
		V9.8c5.1,0.6,10.9,2.5,14.4,5.5h35.7l14.1-6V68.2z M152.4,54.4h35.4V17.9h-35.4V54.4z M218.2,141.4c-2.8,0.8-9.5,1.5-13.2-3.4v-7.2
		h-17.7v8.3c-4.3,3.7-8.8,3.4-13.2,3.2V74.1c5.4,0.8,9.5,2.8,13.2,6.3H205l13.2-6.1V141.4z M187.3,127.5H205V83.6h-17.7V127.5z"/>
</g>
</svg>
