<?xml version="1.0" encoding="utf-8"?>
<svg version="1.1" xmlns="http://www.w3.org/2000/svg" xmlns:xlink="http://www.w3.org/1999/xlink" x="0px" y="0px"
	 viewBox="0 0 460 150" xml:space="preserve">
<g>
	<path d="M45.3,13.4c-1.4,4.2-3.7,5.9-6.4,6.4c-2.1,7.8-5.4,16.4-10.1,25.1l5.7,1.7c0,3.7-1.9,5.6-4.3,6.8l0.2,86.1
		c-4.2,5-10.4,5.9-14.9,5.9V67C10.5,74.5,5.1,81.8,0,88.4C7.8,68.7,20.6,35.4,23.7,6L45.3,13.4z M75,10.4c-0.5,3-1.6,5.1-3.8,6.4
		c-0.2,13.4,0.3,24.9,1.1,35.1l36.3-3.7l-1.2,2.6l-34.8,3.4c3.3,34.2,11.5,51.8,19.7,63.3c1.7,2.5,5,3.8,6.1,0.3l9.6-32.4
		c-1.6,15.3-3.4,41,3.6,51c-10.2,16.4-25.2,0.2-32.4-9.9c-10.1-14.1-17-34.6-20.2-65c-0.3-2.1-0.5-3.8-0.7-5.9l-21.9,2.1L35,55.6
		l22.9-2.3C56.5,38,55.8,24.3,56,7.9L75,10.4z M79.4,13.8c23.4,0.2,34.4,23.7,15.2,30.4C91.7,36.7,84.2,20,79.4,13.8z"/>
	<path d="M124.2,28h40.1V4.5l18.6,4.7c-0.5,5-1.9,6.5-4.2,7.6v11.3h41.6l-1.4,2.5h-40.2v18.2h34.4l-1.4,2.6h-33v19.4h46.4l-1.4,2.8
		h-47.3v0.2c5,10.2,11,19.2,18.1,26.6l9.6-24.7l16,13.4l-23.5,13.5c8.7,8.5,18.8,14.8,30.1,17.7c-6.2,4.3-12.1,11.1-17.2,20.5
		c-9.9-8.7-17.2-16.5-22.8-27.8c-9.6,9.6-24.2,19.1-36,26.6c-0.3,2.5-1.2,4.3-3.1,5.7l-7.6-22.4l5.7-1.2v-17.9
		c-8.4,5.1-17.7,9-28.2,12.1c13.6-11.1,29.7-24.3,39.3-41.9h-36l-1.2-2.8h44.7V51.8h-32.2l-1.2-2.6h33.4V30.9h-39.1L124.2,28z
		 M160.2,92.9v25.4l26.3-5.6c-4.7-9.4-8.2-21.1-11.1-37.5C171,81.9,165.8,87.8,160.2,92.9z"/>
	<path d="M324.2,143.1c-19.1-19.8-29.9-57.5-34.1-89c-3.7,35.1-15.3,73-57.9,91.8c24.3-27,45.6-63.8,42.3-137l23.1,3
		c1.1,2.3-3.1,7.8-5.4,7.1c-0.2,4.2-0.3,8.5-0.5,13c4.2,42.6,31,77.9,52.5,91.7C337.2,128.7,331,133.2,324.2,143.1z"/>
	<path d="M349.7,83c6.6-1.1,13-2.6,20-4.5V44.4h-7.9c-3.1,10.7-7.5,21.1-13,30.6c1.9-10.6,5.6-38.1,5.6-59.1l15.3,5.2V4.8l16.5,3.6
		c-0.3,2.8-1.7,4.8-3.8,5.6v27.8H394l-1.4,2.5h-10.2v30.1c4.3-1.4,8.9-3.1,13.8-5c-4.5,5.2-9.2,9.9-13.8,14.1l0.2,56.5
		c-3.1,3.8-9.6,4.8-12.9,4.3V93.8c-3.6,2.5-7.1,4.8-10.6,6.8c-0.2,3.4-1.1,5.2-2.6,6.5L349.7,83z M362.6,41.9h7.1V22.5
		c-0.7,1.7-1.7,2.8-3.3,3C365.4,31,364.1,36.5,362.6,41.9z M430.2,125.5c4.3,0.5,7.5-1.7,8.5-9.2c1.2-10.2,2.1-57.9,2.1-79.8h-3.4
		c-3.7,56.1-15.3,80.5-48.2,101.7c27.5-35.5,33.4-67.1,36.1-101.7H422c-4.2,32.2-13.4,57.5-37,76.1c13.4-24.7,20.5-49.2,24.2-76.1
		h-0.5c-5.6,12.7-13,24-22,33.4C391.5,56.2,401,27,401.3,4.2l20,7c-0.7,3.1-2.8,4.3-5.2,4.8c-1.7,6.4-3.8,12.4-6.2,18.1h31l14.3-5
		c-0.5,26.5-0.7,75.1-2.1,90c-1.9,15.8-10.8,23.1-24.8,25.6c-1.2-9.9-3-15-17.9-20.5L430.2,125.5z"/>
</g>
</svg>
