<?xml version="1.0" encoding="utf-8"?>
<svg version="1.1" xmlns="http://www.w3.org/2000/svg" xmlns:xlink="http://www.w3.org/1999/xlink" x="0px" y="0px"
	 viewBox="0 0 460 150" xml:space="preserve">
<g>
	<path d="M16.7,123.9l5.1-1.2v-67C15.4,60.7,8.1,65.5,0,70C13.8,55.2,34.6,28.6,43.8,4.1l18.5,8.2c-1.1,3.5-2.7,4-5,3.9
		C74,31.8,94.6,41.8,106.5,43.9c-4.7,4.5-7.1,8-9.6,16.9c-4.3-1.8-9.2-4.7-14.1-8.4v41.3l3.5-4l11.1,14.9l-22,3.5
		c10.4,5,16.7,10,19.9,14.1c5.3,7.4,1.2,22.8-9.5,19c-5.9-9-13.5-18.2-21.7-26.3l-36.8,24.6c0.5,3.2-0.9,5.3-3.2,6.4L16.7,123.9z
		 M50.3,50.1c-1.5-6.4-3-12.5-4.5-18.2c-4.2,5.3-9.2,10.7-14.9,15.9c1.5,0.6,3,1.3,4.3,2.3C35.2,50.1,50.3,50.1,50.3,50.1z
		 M35.2,68.9h34.7V52.5H35.2V68.9z M35.2,87.8h34.7V71.4H35.2V87.8z M70,92.3v-2.1H35.2v29.3l27.3-6.8c-6-6-12.2-11.3-17.5-15.4
		c10.8,2.7,19.7,5.8,27,8.9l9-10.6C77.8,95.7,73.1,94.9,70,92.3z M46.9,30.4c7.4,1.3,13.5,4.5,14,10.8c0.3,3.6-1.1,6.6-3.2,9h12.2
		V50l7.5-2.4c-7.9-7.2-15.4-17.5-21.2-31C53.7,21.1,50.6,25.8,46.9,30.4z"/>
	<path d="M114.6,42.2h17V5.6l17.8,3.9c-0.3,2.7-2.1,4.5-4.2,5.3v27.3h16.4l-1.6,2.4h-14.9v11.3c10.7,3.4,15.6,8.4,16.6,15.5
		c1.2,9.3-6,13.1-10.7,12.4c-0.8-6.4-3.6-20.2-5.9-27.5v80.9c-3.6,3.6-10.6,4.5-13.5,4.5V79.5c-5.8,13.1-13,24.9-19.9,32.6
		c6.9-19.7,14.3-44.9,17.2-67.4h-13.1L114.6,42.2z M163.5,41.7h25.2V5.1L207.3,9c-0.5,2.4-1.8,4.2-4.3,5.1v27.5h16.9l-1.6,2.3H203
		v78.3c0,12.4-7.2,16.7-20.3,18.3c-0.6-4.3,0.9-15.4-16.4-19.6l17.3,1.5c4,0.5,5.1-3.4,5.1-6.6V67.9c-8.2,19.4-23,41.6-40.6,54.1
		c10.8-19.1,28.4-51.6,32.9-78.2h-16.4L163.5,41.7z"/>
	<path d="M270.1,112.1c-3,0.5-9.6,0.2-13.4-2.9v-6.9H246v12.4c-4.7,2.4-8.4,3-13.2,2.9V15.2c5.9,0.5,10.6,3,13.1,6h10.9l13.4-5.9
		L270.1,112.1L270.1,112.1z M246,59.6h10.8V23.1H246V59.6L246,59.6z M246,100.1h10.8V61.7H246V100.1L246,100.1z M306.7,123.4
		c4.2,0.2,5.4-2.1,5.4-6.8V86.5h-19.9c-3.5,25.4-13,40.6-34.6,56.6c20.3-30.7,22.6-58.7,22.6-85.7V11.7c5.3,0.3,10.7,2.7,14.1,5.8
		h18l13.7-5v110.3c0,12.5-7.4,16.9-19.7,18c-1.3-12.8-6.9-14.5-17.5-18.3L306.7,123.4z M292.8,84h19.4V53h-17.9v0.8
		C294.2,65.4,293.8,75.3,292.8,84z M294.2,50.4h17.9V19.9h-17.8L294.2,50.4z"/>
	<path d="M382.2,39.3V13.5c5.9,0.8,10.6,2.7,13.4,6.1v0.2h31.9l13.7-5v124.4c-4.2,0.2-9.8-0.5-13.7-2.7v-12h-31.9v12.3
		c-3.6,2.4-8.5,3.5-13.4,3.4V42.4c-0.9,1.2-2.1,1.6-3.7,1.5c-5,10.8-15.8,28.4-24.4,38.7c8-0.6,16.7-1.5,26.5-2.9
		c-7.1,6.3-20.6,14.1-28.8,18.8c-0.2,2.4-0.6,3.5-2.4,4.5l-5.9-20.1h4.5c5-8.5,10-19.1,13.5-30.4c-4.7,3.6-9.6,6.4-14.8,9.5
		c-0.5,2.6-0.9,3.7-2.3,4.8l-5.3-17.3l3.5-0.2c4.7-12.2,9.6-27.3,11.4-44.1l17.8,9c-0.9,3.2-2.6,4.5-5,4.2
		c-4.5,8.9-12.5,21.2-19.6,30.9l15.5-0.9c1.8-5.9,3-11.9,3.7-17.9L382.2,39.3z M339.7,113.2c13.8-1.5,25.9-4.8,41.4-9.5
		c-5.9,6.3-20.2,19.4-32.3,27c-0.5,2.3-1.1,4.3-2.9,5.4L339.7,113.2z M395.5,70.7h9.5V22.5h-9.5V70.7z M395.5,122.3h9.5V73.2h-9.5
		V122.3z M417.7,70.7h9.8V22.5h-9.8V70.7z M417.7,122.3h9.8V73.2h-9.8V122.3z"/>
</g>
</svg>
