<?xml version="1.0" encoding="utf-8"?>
<svg version="1.1" xmlns="http://www.w3.org/2000/svg" xmlns:xlink="http://www.w3.org/1999/xlink" x="0px" y="0px"
	 viewBox="0 0 460 150" xml:space="preserve">
<g>
	<path d="M47.4,37.4L28,54.1l3-17.6H20.2C14.8,51.7,8.5,65.1,0,77.9C5.5,56.3,10.8,34.3,12.5,5.7l18.9,6c-0.9,2.6-2.1,4.4-4.8,5.1
		c-1.7,6-3.4,11.9-5.4,17.3h10.3l1.8-9.7L47.4,37.4z M9,118.9l5.3-2.4V53.7l16.6,3.9c-0.6,3-1.3,3.9-3.9,4.8v48l21-10.1l-27.6,33
		c0.1,2.4-0.6,4.8-2.1,6L9,118.9z M92.4,141.1c-8.4-14.9-15-32-17.3-68.9c-2.3,36.6-12.5,56.9-41.9,70.2
		c26.6-28.7,29.5-52.5,27.4-92.9l19.1,4c-0.7,3-1.6,4.6-4.3,5.1c0,2.4-0.1,4.7-0.1,6.9c2.1,10.4,8.9,39.5,31.6,55.5
		C101.1,125.8,96.4,132.7,92.4,141.1z M107.4,41.3c-0.3,2.7-2.6,4.7-5.3,4c-5.7,6.6-13.3,12-19.3,17.7l5.1-23.6H63.6
		c-7.3,19.7-16.1,33-25.9,43.5c8.1-21.3,16.1-42.8,17.6-77.2l20,6c-0.7,3.3-2.3,4.7-5.1,5.1c-1.8,7.4-3.6,14-5.7,20h24.1l2.6-11.3
		L107.4,41.3z"/>
	<path d="M128.4,124.5l5.1-1.2V56c-6.4,5-13.7,9.7-21.9,14.3c13.9-14.7,34.6-41.4,44-66.1l18.6,8.1c-1,3.4-2.7,4-5,3.9
		c16.7,15.7,37.3,25.6,49.4,27.9c-4.7,4.6-7.1,8-9.6,16.9c-4.4-1.8-9.2-4.7-14.2-8.4v41.3l3.4-4l11.1,14.9l-22,3.4
		c10.4,5,16.7,10,19.9,14.2c5.3,7.4,1.2,22.9-9.5,19c-5.9-9-13.6-18.2-21.7-26.3l-36.6,24.5c0.4,3.2-0.9,5.3-3.2,6.4L128.4,124.5z
		 M162,50.4c-1.6-6.4-3-12.5-4.6-18.2c-4.3,5.3-9.2,10.7-14.9,16c1.6,0.6,3,1.3,4.4,2.3L162,50.4L162,50.4z M146.9,69.3h34.8V52.9
		h-34.8V69.3z M146.9,88.2h34.8V71.8h-34.8V88.2z M181.7,92.6v-2.1h-34.8v29.3l27.4-6.7c-5.9-6-12.1-11.3-17.3-15.3
		c10.9,2.7,19.7,5.7,27,8.9l9-10.6C189.5,96.1,184.9,95.2,181.7,92.6z M158.6,30.6c7.4,1.3,13.6,4.6,14,10.9c0.3,3.6-1,6.6-3.2,9
		h12.2v-0.1l7.6-2.4c-7.9-7.3-15.3-17.5-21.3-31C165.4,21.3,162.3,26,158.6,30.6z"/>
	<path d="M243.1,88.2c4.6,16.3,4.6,33-2.3,39.5c-6.9,6.7-13.9,0-15.7-9.6C232.3,110.2,239.2,99.9,243.1,88.2z M288.9,10.7
		c-0.4,3.3-2.3,4.6-4.8,5c-0.7,4.8-1.7,9.3-2.6,13.4h48l-1.3,2.4h-41.7c6.4,11.4,22,28,45.5,33c-4.3,5.3-8.3,10.7-11.9,20
		c-12.6-7.7-27.9-20.7-34.9-53h-4.3c-2.1,8-4.6,14.7-7.4,20.5c7.4,2.6,16.7,6.9,17.2,15.3c0.3,8.9-7.4,11.6-10.7,12.8
		c-1.7-6.2-4.3-17-7.9-25.7c-10.3,18.4-25.6,25.9-46.2,34.2c11.1-10.4,32.3-25.9,40-57.1h-36.6l-0.9-2.4h38.2
		c1.6-6.9,2.4-14.7,2.4-23.5L288.9,10.7z M253.5,88.7l16.6,3.6c-0.3,2.7-2,3.9-4,4.4v23c0,5.1,2.6,5.4,4.7,5.4H289
		c7.7,0,12.2-17.9,14.2-26c0.3,9.5,0.7,22.2,7.1,26.9c-1.7,12.2-6.9,11.7-15.3,11.7h-27.7c-10,0-13.6-2.7-13.6-15.9V88.7H253.5
		L253.5,88.7z M269.7,77.7c8.7,2.6,20.9,8,22.2,18.6c1.3,13.3-8.3,14.7-13,13.4C277.1,101.6,274.5,87.6,269.7,77.7z M306.5,87.6
		c12.2,4.8,23.2,13,24.4,22.6c1.3,11.4-5.7,15-11.3,15.7C317.5,117.5,312,98.9,306.5,87.6z"/>
	<path d="M409.2,70.5h-19v4c-3.2,4-11.1,4.7-13.9,4.7V48.8h-12.8l-1-2.6v15.2c0,35.6-7.1,61.6-24.3,81.9c8.9-29.5,9.7-53,9.7-81.3
		V17.7c5.7-0.3,11.1,1.8,14.4,5.3h30.3c-1.3-5.7-3.3-11-5.3-19c8.9,0.4,16.6,2.9,17.5,9.2c0.7,4-1.7,7.3-3.9,9.7h43.3l-1.2,2.4
		h-80.6V46h13.9V30l18,3c-0.6,3-2.1,5-4.3,5.7V46h19.1V30l18,3c-0.6,3-2.1,4.7-4.3,5.4V46h20.5l-1.6,2.6h-19V74
		c-1.7,1.8-4.3,3-6.7,3.6l16.1,13.1c-0.4,3-2.6,4.4-5.9,4c-5.9,7.7-11.6,14.3-17.9,20.2c14.9,6.2,29.5,6.7,35.9,6.7
		c-4,5.6-6.9,9.6-9.3,17.9c-12.8-2.6-26.2-6.9-37.2-16c-13,9-28.5,15.3-49.6,19c13.9-6.9,28.7-15.9,41.4-27
		c-5.7-6.9-10.6-15.9-13.6-27.1h-9l-1.2-2.4h46.6c1.3-2.7,2.6-5.6,3.4-8.4c-2.7,0.7-5.4,0.9-6.7,0.6V70h0.2L409.2,70.5L409.2,70.5z
		 M411.5,88.9h-33.6c5.1,8.9,11.7,15.6,19,20.2C402.6,103,407.6,96.3,411.5,88.9z M390.2,68.1h19V48.8h-19V68.1z"/>
</g>
</svg>
